<svg width="20" height="20" viewBox="0 0 20 20" fill="none" xmlns="http://www.w3.org/2000/svg">
<path fill-rule="evenodd" clip-rule="evenodd" d="M2.69092 9.8999C2.69092 10.4522 3.13863 10.8999 3.69092 10.8999L17.6305 10.8999C18.1828 10.8999 18.6305 10.4522 18.6305 9.8999C18.6305 9.34762 18.1828 8.8999 17.6305 8.8999L3.69092 8.8999C3.13863 8.8999 2.69092 9.34762 2.69092 9.8999Z" fill="#444444"/>
<path fill-rule="evenodd" clip-rule="evenodd" d="M2.12067 10.5607C2.53512 10.9258 3.20707 10.9258 3.62152 10.5607L10.1813 4.78294C10.5958 4.4179 10.5958 3.82606 10.1813 3.46102C9.76688 3.09599 9.09493 3.09599 8.68048 3.46102L2.12067 9.2388C1.70623 9.60384 1.70623 10.1957 2.12067 10.5607Z" fill="#444444"/>
<path fill-rule="evenodd" clip-rule="evenodd" d="M2.12067 9.45051C2.53512 9.08547 3.20707 9.08547 3.62152 9.45051L10.1813 15.2283C10.5958 15.5933 10.5958 16.1852 10.1813 16.5502C9.76688 16.9152 9.09493 16.9152 8.68049 16.5502L2.12067 10.7724C1.70623 10.4074 1.70623 9.81555 2.12067 9.45051Z" fill="#444444"/>
</svg>
