<svg width="20" height="20" viewBox="0 0 20 20" fill="none" xmlns="http://www.w3.org/2000/svg">
<path fill-rule="evenodd" clip-rule="evenodd" d="M17.3096 10.1112C17.3096 9.55892 16.8619 9.11121 16.3096 9.11121L2.36997 9.1112C1.81768 9.1112 1.36997 9.55892 1.36997 10.1112C1.36997 10.6635 1.81768 11.1112 2.36997 11.1112L16.3096 11.1112C16.8619 11.1112 17.3096 10.6635 17.3096 10.1112Z" fill="#444444"/>
<path fill-rule="evenodd" clip-rule="evenodd" d="M17.8798 9.45039C17.4654 9.08535 16.7934 9.08535 16.379 9.45039L9.81916 15.2282C9.40471 15.5932 9.40471 16.185 9.81916 16.5501C10.2336 16.9151 10.9056 16.9151 11.32 16.5501L17.8798 10.7723C18.2943 10.4073 18.2943 9.81543 17.8798 9.45039Z" fill="#444444"/>
<path fill-rule="evenodd" clip-rule="evenodd" d="M17.8798 10.5606C17.4654 10.9256 16.7934 10.9256 16.379 10.5606L9.81916 4.78282C9.40471 4.41778 9.40471 3.82594 9.81916 3.4609C10.2336 3.09586 10.9056 3.09586 11.32 3.4609L17.8798 9.23868C18.2943 9.60372 18.2943 10.1956 17.8798 10.5606Z" fill="#444444"/>
</svg>
