<svg width="28" height="28" viewBox="0 0 28 28" fill="none" xmlns="http://www.w3.org/2000/svg">
<path d="M15.1571 2.75138C15.9781 2.74823 16.7991 2.75648 17.6198 2.77613L17.838 2.78401C18.09 2.79301 18.3386 2.80426 18.639 2.81776C19.836 2.87401 20.6528 3.06301 21.3694 3.34088C22.1119 3.62663 22.7374 4.01363 23.3629 4.63913C23.9348 5.20119 24.3775 5.88107 24.66 6.63151C24.9379 7.34813 25.1269 8.16601 25.1832 9.36301C25.1967 9.66226 25.2079 9.91201 25.2169 10.164L25.2236 10.3823C25.2436 11.2026 25.2523 12.0232 25.2495 12.8438L25.2507 13.683V15.1568C25.2534 15.9777 25.2448 16.7987 25.2248 17.6194L25.218 17.8376C25.209 18.0896 25.1978 18.3383 25.1843 18.6386C25.128 19.8356 24.9368 20.6524 24.66 21.369C24.3784 22.1202 23.9356 22.8007 23.3629 23.3625C22.8004 23.9344 22.1201 24.377 21.3694 24.6596C20.6528 24.9375 19.836 25.1265 18.639 25.1828C18.3386 25.1963 18.09 25.2075 17.838 25.2165L17.6198 25.2233C16.7991 25.2433 15.9781 25.2519 15.1571 25.2491L14.3179 25.2503H12.8453C12.0243 25.253 11.2034 25.2444 10.3826 25.2244L10.1644 25.2176C9.89734 25.208 9.63033 25.1967 9.3634 25.1839C8.1664 25.1276 7.34965 24.9364 6.6319 24.6596C5.88117 24.3776 5.20117 23.9349 4.63952 23.3625C4.06695 22.8003 3.6239 22.12 3.34127 21.369C3.0634 20.6524 2.8744 19.8356 2.81815 18.6386C2.80562 18.3717 2.79437 18.1047 2.7844 17.8376L2.77877 17.6194C2.75803 16.7987 2.74866 15.9777 2.75065 15.1568V12.8438C2.74751 12.0232 2.75576 11.2026 2.7754 10.3823L2.78327 10.164C2.79227 9.91201 2.80352 9.66226 2.81702 9.36301C2.87327 8.16488 3.06227 7.34926 3.34015 6.63151C3.62294 5.88071 4.06686 5.20101 4.64065 4.64026C5.20191 4.06736 5.88148 3.6239 6.6319 3.34088C7.34965 3.06301 8.16527 2.87401 9.3634 2.81776L10.1644 2.78401L10.3826 2.77838C11.203 2.75765 12.0236 2.74828 12.8441 2.75026L15.1571 2.75138ZM14.0006 8.37638C13.2553 8.36584 12.5154 8.50354 11.8237 8.78146C11.1321 9.05938 10.5026 9.472 9.97185 9.99532C9.44107 10.5186 9.0196 11.1422 8.73192 11.8299C8.44424 12.5175 8.2961 13.2554 8.2961 14.0008C8.2961 14.7462 8.44424 15.4841 8.73192 16.1718C9.0196 16.8594 9.44107 17.483 9.97185 18.0063C10.5026 18.5296 11.1321 18.9423 11.8237 19.2202C12.5154 19.4981 13.2553 19.6358 14.0006 19.6253C15.4925 19.6253 16.9232 19.0326 17.9781 17.9777C19.033 16.9228 19.6256 15.4921 19.6256 14.0003C19.6256 12.5084 19.033 11.0777 17.9781 10.0228C16.9232 8.96789 15.4925 8.37638 14.0006 8.37638ZM14.0006 10.6264C14.449 10.6181 14.8944 10.6993 15.311 10.8651C15.7276 11.031 16.107 11.2781 16.427 11.5922C16.747 11.9064 17.0012 12.2811 17.1748 12.6945C17.3483 13.108 17.4377 13.5519 17.4378 14.0002C17.4379 14.4486 17.3486 14.8926 17.1752 15.3061C17.0018 15.7196 16.7477 16.0944 16.4278 16.4086C16.1079 16.7228 15.7286 16.9701 15.3121 17.1361C14.8955 17.3021 14.4501 17.3834 14.0018 17.3753C13.1067 17.3753 12.2482 17.0197 11.6153 16.3867C10.9824 15.7538 10.6268 14.8954 10.6268 14.0003C10.6268 13.1052 10.9824 12.2467 11.6153 11.6138C12.2482 10.9808 13.1067 10.6253 14.0018 10.6253L14.0006 10.6264ZM19.9069 6.68888C19.544 6.70341 19.2007 6.8578 18.9491 7.11973C18.6974 7.38165 18.5569 7.73079 18.5569 8.09401C18.5569 8.45723 18.6974 8.80637 18.9491 9.06829C19.2007 9.33021 19.544 9.48461 19.9069 9.49913C20.2799 9.49913 20.6375 9.35098 20.9013 9.08725C21.165 8.82353 21.3132 8.46585 21.3132 8.09288C21.3132 7.71992 21.165 7.36224 20.9013 7.09852C20.6375 6.83479 20.2799 6.68663 19.9069 6.68663V6.68888Z" fill="#FF006D"/>
</svg>
