<svg width="28" height="28" viewBox="0 0 28 28" fill="none" xmlns="http://www.w3.org/2000/svg">
<path d="M14 2.75C20.2134 2.75 25.25 7.78663 25.25 14C25.25 20.2134 20.2134 25.25 14 25.25C12.0119 25.2532 10.0588 24.7271 8.34127 23.7256L2.75452 25.25L4.27552 19.661C3.27325 17.943 2.74669 15.989 2.75002 14C2.75002 7.78663 7.78664 2.75 14 2.75ZM10.166 8.7125L9.94102 8.7215C9.79535 8.73037 9.65299 8.76864 9.52252 8.834C9.40048 8.90311 9.28907 8.9895 9.19177 9.0905C9.05677 9.21763 8.98027 9.32788 8.89814 9.43475C8.48203 9.97577 8.25798 10.64 8.26139 11.3225C8.26364 11.8738 8.40764 12.4104 8.63264 12.9121C9.09277 13.9269 9.84989 15.0012 10.8489 15.9969C11.0896 16.2365 11.3259 16.4773 11.5801 16.7011C12.8215 17.794 14.3007 18.5822 15.9001 19.0029L16.5391 19.1007C16.7473 19.112 16.9554 19.0962 17.1646 19.0861C17.4923 19.0692 17.8122 18.9805 18.1018 18.8263C18.2491 18.7504 18.3929 18.6678 18.5326 18.5787C18.5326 18.5787 18.581 18.5472 18.6733 18.4775C18.8251 18.365 18.9185 18.2851 19.0445 18.1535C19.1379 18.0568 19.2189 17.9431 19.2808 17.8138C19.3685 17.6304 19.4563 17.2805 19.4923 16.9891C19.5193 16.7664 19.5114 16.6449 19.508 16.5695C19.5035 16.4491 19.4034 16.3242 19.2943 16.2714L18.6395 15.9778C18.6395 15.9778 17.6608 15.5514 17.0623 15.2791C16.9996 15.2518 16.9325 15.2361 16.8643 15.233C16.7873 15.2251 16.7095 15.2338 16.6362 15.2584C16.5628 15.283 16.4956 15.3231 16.439 15.3759C16.4334 15.3736 16.358 15.4378 15.5446 16.4233C15.498 16.486 15.4336 16.5334 15.3599 16.5594C15.2862 16.5855 15.2064 16.589 15.1306 16.5695C15.0574 16.5498 14.9855 16.525 14.9158 16.4953C14.7763 16.4368 14.7279 16.4142 14.6323 16.3737C13.9866 16.092 13.3888 15.7113 12.8604 15.2454C12.7186 15.1216 12.587 14.9866 12.452 14.8561C12.0094 14.4323 11.6237 13.9528 11.3045 13.4296L11.2381 13.3228C11.1905 13.2509 11.1519 13.1735 11.1234 13.0921C11.0806 12.9267 11.192 12.794 11.192 12.794C11.192 12.794 11.4654 12.4947 11.5925 12.3327C11.7163 12.1752 11.8209 12.0223 11.8884 11.9131C12.0211 11.6994 12.0628 11.48 11.993 11.3101C11.678 10.5406 11.3518 9.7745 11.0165 9.014C10.9501 8.86325 10.7533 8.75525 10.5744 8.73387C10.5136 8.72712 10.4529 8.72038 10.3921 8.71588C10.2411 8.70837 10.0897 8.70987 9.93877 8.72038L10.1649 8.71137L10.166 8.7125Z" fill="#FF006D"/>
</svg>
