<svg width="630" height="190" viewBox="0 0 630 190" fill="none" xmlns="http://www.w3.org/2000/svg">
<path d="M16.7061 173.705V186.108" stroke="#444444" stroke-linecap="round" stroke-linejoin="round"/>
<path d="M59.6299 173.705V186.108" stroke="#444444" stroke-linecap="round" stroke-linejoin="round"/>
<path d="M102.53 173.705V186.108" stroke="#444444" stroke-linecap="round" stroke-linejoin="round"/>
<path d="M145.455 173.705V186.108" stroke="#444444" stroke-linecap="round" stroke-linejoin="round"/>
<path d="M188.378 173.705V186.108" stroke="#444444" stroke-linecap="round" stroke-linejoin="round"/>
<path d="M231.303 173.705V186.108" stroke="#444444" stroke-linecap="round" stroke-linejoin="round"/>
<path d="M274.227 173.705V186.108" stroke="#444444" stroke-linecap="round" stroke-linejoin="round"/>
<path d="M317.151 173.705V186.108" stroke="#444444" stroke-linecap="round" stroke-linejoin="round"/>
<path d="M360.074 173.705V186.108" stroke="#444444" stroke-linecap="round" stroke-linejoin="round"/>
<path d="M402.838 173.705V186.108" stroke="#444444" stroke-linecap="round" stroke-linejoin="round"/>
<path d="M445.76 173.705V186.108" stroke="#444444" stroke-linecap="round" stroke-linejoin="round"/>
<path d="M488.685 173.705V186.108" stroke="#444444" stroke-linecap="round" stroke-linejoin="round"/>
<path d="M531.471 173.705V186.108" stroke="#444444" stroke-linecap="round" stroke-linejoin="round"/>
<path d="M574.394 173.705V186.108" stroke="#444444" stroke-linecap="round" stroke-linejoin="round"/>
<path d="M617.317 173.705V186.108" stroke="#444444" stroke-linecap="round" stroke-linejoin="round"/>
<path d="M3 173.705H626" stroke="#444444" stroke-linecap="round" stroke-linejoin="round"/>
<path d="M35.877 163.931L77.8749 142.4L119.896 78.8144L164.649 143.706L202.086 109.789L246.839 133.271L291.592 45.6077L337.248 105.869L375.611 74.5478L412.145 114.584L464.33 93.0529L506.212 106.713L547.376 93.0529L602.478 46.3353" stroke="#444444" stroke-width="3" stroke-linecap="round" stroke-linejoin="round"/>
<path d="M552 9.00001C552 6.23858 554.239 4 557 4H599C601.761 4 604 6.23858 604 9V24.3897C604 27.1511 601.761 29.3897 599 29.3897H590.501L600.996 45L581.575 29.3897H557C554.239 29.3897 552 27.1511 552 24.3897V9.00001Z" fill="#444444"/>
<path d="M558 157C558 159.761 560.239 162 563 162H599C601.761 162 604 159.761 604 157V141.627C604 138.866 601.761 136.627 599 136.627H592.058L601.343 121L584.163 136.627H563C560.239 136.627 558 138.866 558 141.627V157Z" fill="#FF006D"/>
<path d="M32.959 136.215L84.3335 108.681L124.063 131.221L163.768 107.01L203.474 132.875L256.053 85.33L296.916 102.016L336.645 133.718L376.351 99.5024L421.914 77.8221L465.116 117.032L508.341 126.21L543.37 123.696L599.445 105.357" stroke="#FF006D" stroke-width="3" stroke-linecap="round" stroke-linejoin="round"/>
<path d="M577.976 19.656C578.611 19.5813 579.091 19.3733 579.416 19.032C579.747 18.6907 579.912 18.2507 579.912 17.712C579.912 17.4827 579.869 17.2827 579.784 17.112C579.699 16.9413 579.581 16.792 579.432 16.664C579.288 16.536 579.115 16.4267 578.912 16.336C578.709 16.24 578.491 16.152 578.256 16.072L577.976 19.656ZM577.584 10.848C577.264 10.88 576.989 10.9467 576.76 11.048C576.531 11.144 576.341 11.264 576.192 11.408C576.043 11.5467 575.933 11.704 575.864 11.88C575.795 12.056 575.76 12.2427 575.76 12.44C575.76 12.664 575.8 12.8613 575.88 13.032C575.96 13.2027 576.069 13.3547 576.208 13.488C576.352 13.616 576.52 13.7307 576.712 13.832C576.904 13.928 577.112 14.0187 577.336 14.104L577.584 10.848ZM578.384 14.44C578.768 14.5573 579.147 14.688 579.52 14.832C579.899 14.9707 580.237 15.152 580.536 15.376C580.835 15.5947 581.075 15.8693 581.256 16.2C581.443 16.5307 581.536 16.944 581.536 17.44C581.536 17.9253 581.453 18.384 581.288 18.816C581.128 19.2427 580.891 19.6213 580.576 19.952C580.261 20.2773 579.875 20.544 579.416 20.752C578.963 20.9547 578.445 21.0747 577.864 21.112L577.768 22.392C577.763 22.504 577.717 22.6053 577.632 22.696C577.547 22.792 577.437 22.84 577.304 22.84H576.664L576.8 21.088C576.171 21.0133 575.584 20.848 575.04 20.592C574.501 20.3307 574.04 20.0053 573.656 19.616L574.176 18.824C574.224 18.7547 574.285 18.6987 574.36 18.656C574.44 18.608 574.525 18.584 574.616 18.584C574.728 18.584 574.848 18.6293 574.976 18.72C575.109 18.8107 575.264 18.9173 575.44 19.04C575.616 19.1573 575.824 19.2747 576.064 19.392C576.304 19.504 576.587 19.5867 576.912 19.64L577.208 15.76C576.835 15.648 576.464 15.5227 576.096 15.384C575.733 15.24 575.405 15.0507 575.112 14.816C574.824 14.5813 574.589 14.288 574.408 13.936C574.232 13.584 574.144 13.1413 574.144 12.608C574.144 12.208 574.221 11.8187 574.376 11.44C574.536 11.0613 574.765 10.7253 575.064 10.432C575.368 10.1333 575.741 9.89067 576.184 9.704C576.627 9.512 577.133 9.40267 577.704 9.376L577.784 8.304C577.789 8.18667 577.835 8.08267 577.92 7.992C578.005 7.90133 578.115 7.856 578.248 7.856H578.888L578.768 9.424C579.328 9.504 579.813 9.65867 580.224 9.888C580.635 10.112 580.992 10.3733 581.296 10.672L580.88 11.312C580.763 11.4987 580.619 11.592 580.448 11.592C580.368 11.592 580.272 11.5627 580.16 11.504C580.053 11.4453 579.925 11.376 579.776 11.296C579.632 11.216 579.467 11.136 579.28 11.056C579.093 10.976 578.885 10.9147 578.656 10.872L578.384 14.44Z" fill="white"/>
<path d="M580.96 146.232C580.96 146.669 580.885 147.064 580.736 147.416C580.592 147.768 580.397 148.069 580.152 148.32C579.907 148.565 579.621 148.755 579.296 148.888C578.971 149.021 578.632 149.088 578.28 149.088C577.896 149.088 577.541 149.021 577.216 148.888C576.891 148.755 576.608 148.565 576.368 148.32C576.133 148.069 575.949 147.768 575.816 147.416C575.683 147.064 575.616 146.669 575.616 146.232C575.616 145.784 575.683 145.379 575.816 145.016C575.949 144.653 576.133 144.347 576.368 144.096C576.608 143.845 576.891 143.653 577.216 143.52C577.541 143.381 577.896 143.312 578.28 143.312C578.664 143.312 579.019 143.381 579.344 143.52C579.675 143.653 579.96 143.845 580.2 144.096C580.44 144.347 580.627 144.653 580.76 145.016C580.893 145.379 580.96 145.784 580.96 146.232ZM579.44 146.232C579.44 145.923 579.408 145.664 579.344 145.456C579.285 145.248 579.203 145.08 579.096 144.952C578.995 144.824 578.872 144.733 578.728 144.68C578.589 144.621 578.44 144.592 578.28 144.592C578.12 144.592 577.971 144.621 577.832 144.68C577.693 144.733 577.573 144.824 577.472 144.952C577.376 145.08 577.299 145.248 577.24 145.456C577.181 145.664 577.152 145.923 577.152 146.232C577.152 146.531 577.181 146.781 577.24 146.984C577.299 147.181 577.376 147.341 577.472 147.464C577.573 147.587 577.693 147.675 577.832 147.728C577.971 147.781 578.12 147.808 578.28 147.808C578.44 147.808 578.589 147.781 578.728 147.728C578.872 147.675 578.995 147.587 579.096 147.464C579.203 147.341 579.285 147.181 579.344 146.984C579.408 146.781 579.44 146.531 579.44 146.232ZM584.808 143.744C584.877 143.664 584.957 143.592 585.048 143.528C585.144 143.464 585.277 143.432 585.448 143.432H586.888L578.296 154.704C578.227 154.789 578.144 154.861 578.048 154.92C577.952 154.973 577.835 155 577.696 155H576.224L584.808 143.744ZM587.496 152.28C587.496 152.717 587.421 153.112 587.272 153.464C587.128 153.816 586.933 154.117 586.688 154.368C586.443 154.613 586.157 154.805 585.832 154.944C585.507 155.077 585.168 155.144 584.816 155.144C584.432 155.144 584.077 155.077 583.752 154.944C583.427 154.805 583.144 154.613 582.904 154.368C582.669 154.117 582.485 153.816 582.352 153.464C582.219 153.112 582.152 152.717 582.152 152.28C582.152 151.832 582.219 151.427 582.352 151.064C582.485 150.701 582.669 150.395 582.904 150.144C583.144 149.893 583.427 149.701 583.752 149.568C584.077 149.429 584.432 149.36 584.816 149.36C585.2 149.36 585.555 149.429 585.88 149.568C586.211 149.701 586.493 149.893 586.728 150.144C586.968 150.395 587.155 150.701 587.288 151.064C587.427 151.427 587.496 151.832 587.496 152.28ZM585.968 152.28C585.968 151.971 585.939 151.712 585.88 151.504C585.821 151.296 585.739 151.128 585.632 151C585.531 150.872 585.408 150.781 585.264 150.728C585.125 150.669 584.976 150.64 584.816 150.64C584.656 150.64 584.507 150.669 584.368 150.728C584.229 150.781 584.109 150.872 584.008 151C583.907 151.128 583.827 151.296 583.768 151.504C583.715 151.712 583.688 151.971 583.688 152.28C583.688 152.579 583.715 152.829 583.768 153.032C583.827 153.235 583.907 153.397 584.008 153.52C584.109 153.643 584.229 153.731 584.368 153.784C584.507 153.837 584.656 153.864 584.816 153.864C584.976 153.864 585.125 153.837 585.264 153.784C585.408 153.731 585.531 153.643 585.632 153.52C585.739 153.397 585.821 153.235 585.88 153.032C585.939 152.829 585.968 152.579 585.968 152.28Z" fill="white"/>
</svg>
