<svg width="370" height="370" viewBox="0 0 370 370" fill="none" xmlns="http://www.w3.org/2000/svg">
<path fill-rule="evenodd" clip-rule="evenodd" d="M351.925 260.285C339.172 288.498 319.48 313.018 294.689 331.552C269.898 350.087 240.817 362.033 210.162 366.274C179.506 370.514 148.276 366.912 119.389 355.803C90.5025 344.693 64.9008 326.44 44.9756 302.747L60.3118 289.834C78.056 310.934 100.855 327.19 126.58 337.083C152.305 346.976 180.117 350.184 207.417 346.408C234.717 342.631 260.615 331.993 282.692 315.487C304.769 298.981 322.305 277.146 333.662 252.021L351.925 260.285Z" fill="#20C4B2"/>
<path fill-rule="evenodd" clip-rule="evenodd" d="M2.87736 202.727C-0.738423 165.899 6.87593 128.839 24.7181 96.4253L42.2746 106.1C26.3855 134.966 19.6046 167.97 22.8246 200.767C26.0446 233.563 39.1146 264.616 60.314 289.836L44.9747 302.744C21.1696 274.424 6.49315 239.555 2.87736 202.727Z" fill="#FF006D"/>
<path fill-rule="evenodd" clip-rule="evenodd" d="M130.718 10.2017C175.835 -3.77963 224.607 0.223599 266.844 21.375C309.081 42.5264 341.516 79.1898 357.373 123.706C373.23 168.222 371.282 217.147 351.937 260.26L333.652 252.046C350.88 213.652 352.615 170.082 338.493 130.439C324.372 90.7955 295.487 58.1452 257.873 39.309C220.259 20.4729 176.826 16.9078 136.647 29.3587C96.4684 41.8096 62.6518 69.3134 42.2623 106.124L24.7314 96.4024C47.6271 55.0673 85.6001 24.1829 130.718 10.2017Z" fill="#444444"/>
</svg>
