<svg width="230" height="230" viewBox="0 0 230 230" fill="none" xmlns="http://www.w3.org/2000/svg">
<path d="M203.409 79.1415C204.574 67.1237 207.358 55.7463 202.435 44.1895C193.4 22.9817 166.145 11.7221 144.967 21.7676C134.137 26.8903 124.876 34.3847 112.949 37.1356C80.756 44.5584 31.0669 5.01138 13.545 51.0539C7.52999 66.8522 9.95547 87.6707 20.8317 100.877C24.3238 105.113 28.5901 108.802 31.1746 113.648C38.2459 126.91 28.2363 141.484 23.7238 153.856C13.0066 183.091 53.4142 199.268 75.3461 202.249C111.6 207.208 141.506 165.715 177.56 182.619C202.686 194.401 224.736 165.715 220.121 137.028C217.101 118.248 201.81 100.272 203.24 81.1342C203.292 80.4734 203.348 79.8126 203.409 79.1415Z" fill="#20C4B2"/>
<path opacity="0.7" d="M203.409 79.1415C204.574 67.1237 207.358 55.7463 202.435 44.1895C193.4 22.9817 166.145 11.7221 144.967 21.7676C134.137 26.8903 124.876 34.3847 112.949 37.1356C80.756 44.5584 31.0669 5.01138 13.545 51.0539C7.52999 66.8522 9.95547 87.6707 20.8317 100.877C24.3238 105.113 28.5901 108.802 31.1746 113.648C38.2459 126.91 28.2363 141.484 23.7238 153.856C13.0066 183.091 53.4142 199.268 75.3461 202.249C111.6 207.208 141.506 165.715 177.56 182.619C202.686 194.401 224.736 165.715 220.121 137.028C217.101 118.248 201.81 100.272 203.24 81.1342C203.292 80.4734 203.348 79.8126 203.409 79.1415Z" fill="white"/>
<path d="M30.7849 86.9584C40.5639 86.9584 48.4914 79.039 48.4914 69.2699C48.4914 59.5007 40.5639 51.5813 30.7849 51.5813C21.0059 51.5813 13.0784 59.5007 13.0784 69.2699C13.0784 79.039 21.0059 86.9584 30.7849 86.9584Z" fill="white" stroke="#2E353A" stroke-linecap="round" stroke-linejoin="round"/>
<path d="M29.467 85.2014C39.2461 85.2014 47.1736 77.2819 47.1736 67.5128C47.1736 57.7437 39.2461 49.8242 29.467 49.8242C19.688 49.8242 11.7605 57.7437 11.7605 67.5128C11.7605 77.2819 19.688 85.2014 29.467 85.2014Z" fill="white" stroke="#2E353A" stroke-linecap="round" stroke-linejoin="round"/>
<path d="M29.467 83.4443C38.2746 83.4443 45.4146 76.3115 45.4146 67.5128C45.4146 58.7141 38.2746 51.5813 29.467 51.5813C20.6593 51.5813 13.5193 58.7141 13.5193 67.5128C13.5193 76.3115 20.6593 83.4443 29.467 83.4443Z" fill="#2E353A" stroke="#2E353A" stroke-linecap="round" stroke-linejoin="round"/>
<path d="M27.5953 55.536C27.5953 55.536 25.8365 51.1408 22.7598 48.0672C19.683 44.9936 7.14027 43.0111 7.14027 43.0111C9.16564 44.9627 11.0074 47.0958 12.6425 49.3837C15.4987 53.3384 24.9494 62.3492 24.9494 62.3492C24.9494 62.3492 20.3343 58.3945 16.1499 57.9539C11.9656 57.5134 1.41244 59.711 0.766326 59.711C0.120215 59.711 4.72504 61.4681 8.02739 63.0049C11.3297 64.5417 24.0827 65.8633 24.0827 65.8633C24.0827 65.8633 18.5857 67.4001 14.8526 68.7218C11.1195 70.0434 7.58126 79.7048 7.58126 79.7048C7.58126 79.7048 12.422 75.3095 16.6012 74.2133C20.7804 73.117 26.7185 71.1397 26.7185 71.1397C26.7185 71.1397 22.9803 75.3146 22.1034 78.1731C21.2265 81.0315 21.8829 87.6193 21.8829 87.6193C21.8829 87.6193 23.8622 81.4721 26.2826 79.0491C28.703 76.626 31.3335 72.4818 31.3335 72.4818C32.5519 74.4657 33.6545 76.5181 34.6359 78.629C36.3948 82.3634 37.4921 87.8498 37.4921 87.8498C37.4921 87.8498 40.3535 81.7026 40.133 78.629C39.9125 75.5554 36.6153 70.0588 36.6153 70.0588C36.6153 70.0588 38.8151 68.522 42.1123 69.8385C45.4096 71.155 51.1323 76.6517 51.1323 76.6517C51.1323 76.6517 49.8093 69.398 47.6094 66.5446C45.4096 63.6913 35.9538 62.8051 35.9538 62.8051C35.9538 62.8051 41.2355 59.7315 44.5327 59.0707C47.8299 58.4098 52.2245 59.9518 52.2245 59.9518C52.2245 59.9518 47.1684 52.9183 43.2097 52.4778C39.251 52.0372 33.3129 58.1742 33.3129 58.1742L35.0769 49.3837C35.5128 47.1861 34.6359 41.6997 34.6359 41.6997C34.6359 41.6997 32.2155 43.0162 29.3542 47.1912C28.5168 48.3937 27.9296 49.752 27.6275 51.1854C27.3254 52.6188 27.3144 54.0983 27.5953 55.536Z" fill="#20C4B2"/>
<path opacity="0.5" d="M27.5953 55.536C27.5953 55.536 25.8365 51.1408 22.7598 48.0672C19.683 44.9936 7.14027 43.0111 7.14027 43.0111C9.16564 44.9627 11.0074 47.0958 12.6425 49.3837C15.4987 53.3384 24.9494 62.3492 24.9494 62.3492C24.9494 62.3492 20.3343 58.3945 16.1499 57.9539C11.9656 57.5134 1.41244 59.711 0.766326 59.711C0.120215 59.711 4.72504 61.4681 8.02739 63.0049C11.3297 64.5417 24.0827 65.8633 24.0827 65.8633C24.0827 65.8633 18.5857 67.4001 14.8526 68.7218C11.1195 70.0434 7.58126 79.7048 7.58126 79.7048C7.58126 79.7048 12.422 75.3095 16.6012 74.2133C20.7804 73.117 26.7185 71.1397 26.7185 71.1397C26.7185 71.1397 22.9803 75.3146 22.1034 78.1731C21.2265 81.0315 21.8829 87.6193 21.8829 87.6193C21.8829 87.6193 23.8622 81.4721 26.2826 79.0491C28.703 76.626 31.3335 72.4818 31.3335 72.4818C32.5519 74.4657 33.6545 76.5181 34.6359 78.629C36.3948 82.3634 37.4921 87.8498 37.4921 87.8498C37.4921 87.8498 40.3535 81.7026 40.133 78.629C39.9125 75.5554 36.6153 70.0588 36.6153 70.0588C36.6153 70.0588 38.8151 68.522 42.1123 69.8385C45.4096 71.155 51.1323 76.6517 51.1323 76.6517C51.1323 76.6517 49.8093 69.398 47.6094 66.5446C45.4096 63.6913 35.9538 62.8051 35.9538 62.8051C35.9538 62.8051 41.2355 59.7315 44.5327 59.0707C47.8299 58.4098 52.2245 59.9518 52.2245 59.9518C52.2245 59.9518 47.1684 52.9183 43.2097 52.4778C39.251 52.0372 33.3129 58.1742 33.3129 58.1742L35.0769 49.3837C35.5128 47.1861 34.6359 41.6997 34.6359 41.6997C34.6359 41.6997 32.2155 43.0162 29.3542 47.1912C28.5168 48.3937 27.9296 49.752 27.6275 51.1854C27.3254 52.6188 27.3144 54.0983 27.5953 55.536Z" fill="black"/>
<path d="M31.9285 48.8458C32.0823 48.2158 32.2515 47.5857 32.4413 46.9658" stroke="#2E353A" stroke-width="0.5" stroke-linecap="round" stroke-linejoin="round"/>
<path d="M17.2371 48.8459C19.2882 50.3469 21.8521 52.4318 23.1956 54.2196C25.616 57.5135 30.4567 64.5469 30.4567 64.5469C30.3181 59.8229 30.6929 55.0977 31.5746 50.4545" stroke="#2E353A" stroke-width="0.5" stroke-linecap="round" stroke-linejoin="round"/>
<path d="M14.1809 46.7456C14.1809 46.7456 14.8219 47.1554 15.7808 47.8162" stroke="#2E353A" stroke-width="0.5" stroke-linecap="round" stroke-linejoin="round"/>
<path d="M30.4568 64.5469C30.4568 64.5469 38.8152 56.197 42.3329 55.5362C45.8507 54.8753 48.9325 57.5135 48.9325 57.5135" stroke="#2E353A" stroke-width="0.5" stroke-linecap="round" stroke-linejoin="round"/>
<path d="M15.5192 71.5291C13.468 72.82 13.2988 73.5781 13.2988 73.5781" stroke="#2E353A" stroke-width="0.5" stroke-linecap="round" stroke-linejoin="round"/>
<path d="M48.712 72.2359C48.712 72.2359 47.3941 68.9369 42.7739 67.4001C38.1537 65.8633 30.9029 65.6431 30.9029 65.6431C30.9029 65.6431 20.7241 68.9728 17.0012 70.7094" stroke="#2E353A" stroke-width="0.5" stroke-linecap="round" stroke-linejoin="round"/>
<path d="M26.4519 64.3879C28.9133 65.1051 30.8978 65.643 30.8978 65.643" stroke="#2E353A" stroke-width="0.5" stroke-linecap="round" stroke-linejoin="round"/>
<path d="M10.9604 60.4846C13.35 60.6281 16.4268 60.9559 18.1395 61.6884C19.5342 62.2878 22.2828 63.1535 24.8775 63.9271" stroke="#2E353A" stroke-width="0.5" stroke-linecap="round" stroke-linejoin="round"/>
<path d="M7.5813 60.3718C7.5813 60.3718 8.38637 60.3718 9.57091 60.4179" stroke="#2E353A" stroke-width="0.5" stroke-linecap="round" stroke-linejoin="round"/>
<path d="M30.4566 66.9597C30.4566 66.9597 24.3031 76.1805 23.857 78.3884C23.5927 79.6909 23.4452 81.0144 23.416 82.3431" stroke="#2E353A" stroke-width="0.5" stroke-linecap="round" stroke-linejoin="round"/>
<path d="M33.1951 69.8643C34.3796 71.4011 35.8 73.4501 36.3949 75.0894C37.0872 77.0894 37.602 79.1464 37.9332 81.2366" stroke="#2E353A" stroke-width="0.5" stroke-linecap="round" stroke-linejoin="round"/>
<path d="M31.3335 67.6204C31.3335 67.6204 31.8463 68.1634 32.5078 68.9984" stroke="#2E353A" stroke-width="0.5" stroke-linecap="round" stroke-linejoin="round"/>
<path d="M24.8007 57.4315C24.8007 57.4315 23.6675 52.8211 24.37 48.5436C25.0725 44.2662 34.1129 35.3374 34.1129 35.3374C33.6105 38.1026 33.3616 40.9077 33.3694 43.7181C33.3694 48.5949 30.9337 61.422 30.9337 61.422C30.9337 61.422 32.3746 55.5207 35.5128 52.7135C38.6511 49.9063 48.512 45.5418 49.0453 45.1678C49.5786 44.7938 46.8557 48.9022 45.0763 52.0783C43.2969 55.2543 33.6924 63.7733 33.6924 63.7733C33.6924 63.7733 39.0562 61.8165 42.8611 60.6997C46.666 59.583 55.168 65.3921 55.168 65.3921C55.168 65.3921 48.671 64.6442 44.6353 66.1861C40.5997 67.728 34.6206 69.5824 34.6206 69.5824C34.6206 69.5824 40.0972 70.7965 42.4765 72.6048C44.8558 74.4131 48.1787 80.1659 48.1787 80.1659C48.1787 80.1659 42.979 76.3187 39.5998 75.7655C36.2205 75.2122 31.6413 73.363 31.6413 73.363C31.815 75.6835 32.1197 77.9924 32.5541 80.2786C33.3079 84.3408 35.6308 89.443 35.6308 89.443C35.6308 89.443 29.7183 86.1133 28.0979 83.4853C26.4775 80.8574 25.9545 74.4746 25.9545 74.4746C25.9545 74.4746 23.2675 74.5053 21.3394 77.4969C19.4113 80.4886 17.9909 88.2853 17.9909 88.2853C17.9909 88.2853 14.8321 81.6258 14.9501 78.04C15.068 74.4541 22.2368 68.2147 22.2368 68.2147C22.2368 68.2147 16.1551 68.7935 13.0887 70.1767C10.0222 71.5598 7.34546 75.3762 7.34546 75.3762C7.34546 75.3762 7.34546 66.7189 10.3094 64.0551C13.2733 61.3913 21.6881 62.9281 21.6881 62.9281L15.1244 56.8167C13.4835 55.2799 10.9914 50.311 10.9914 50.311C10.9914 50.311 13.7297 49.9729 18.4883 51.6992C19.8715 52.183 21.1431 52.9398 22.2276 53.9246C23.312 54.9093 24.1871 56.102 24.8007 57.4315Z" fill="#20C4B2"/>
<path d="M17.3755 54.5217C16.8627 54.0965 16.3807 53.6867 15.8679 53.2871" stroke="#2E353A" stroke-width="0.5" stroke-linecap="round" stroke-linejoin="round"/>
<path d="M29.3081 45.9619C28.5132 48.3798 27.6261 51.561 27.6056 53.7945C27.5646 57.8926 27.7389 66.4116 27.7389 66.4116C25.0922 62.4947 22.0264 58.8773 18.5959 55.6233" stroke="#2E353A" stroke-width="0.5" stroke-linecap="round" stroke-linejoin="round"/>
<path d="M30.5695 42.4734C30.5695 42.4734 30.2823 43.1803 29.8926 44.2714" stroke="#2E353A" stroke-width="0.5" stroke-linecap="round" stroke-linejoin="round"/>
<path d="M27.739 66.4115C27.739 66.4115 16.0731 64.5007 12.8323 66.0171C9.59148 67.5334 8.62744 71.4573 8.62744 71.4573" stroke="#2E353A" stroke-width="0.5" stroke-linecap="round" stroke-linejoin="round"/>
<path d="M43.9531 63.3788C46.3581 63.2456 46.9324 63.7323 46.9324 63.7323" stroke="#2E353A" stroke-width="0.5" stroke-linecap="round" stroke-linejoin="round"/>
<path d="M17.4012 83.2958C17.4012 83.2958 16.55 79.8482 19.4011 75.9089C22.2522 71.9695 28.0262 67.564 28.0262 67.564C28.0262 67.564 38.2357 64.3316 42.2714 63.5786" stroke="#2E353A" stroke-width="0.5" stroke-linecap="round" stroke-linejoin="round"/>
<path d="M30.9029 63.9526C29.3235 65.9658 28.0312 67.5641 28.0312 67.5641" stroke="#2E353A" stroke-width="0.5" stroke-linecap="round" stroke-linejoin="round"/>
<path d="M41.2048 51.7556C39.3485 53.2924 37.041 55.3415 36.0769 56.9141C35.2924 58.2153 33.5643 60.5 31.908 62.6567" stroke="#2E353A" stroke-width="0.5" stroke-linecap="round" stroke-linejoin="round"/>
<path d="M43.8814 49.6912C43.8814 49.6912 43.2301 50.1624 42.2917 50.8899" stroke="#2E353A" stroke-width="0.5" stroke-linecap="round" stroke-linejoin="round"/>
<path d="M29.1492 68.3838C29.1492 68.3838 39.5434 72.2873 41.1791 73.8189C42.1546 74.7226 43.047 75.7119 43.8456 76.7747" stroke="#2E353A" stroke-width="0.5" stroke-linecap="round" stroke-linejoin="round"/>
<path d="M28.6209 72.3281C28.5491 74.2645 28.585 76.749 29.0721 78.4395C29.6766 80.4704 30.4609 82.4436 31.4155 84.3357" stroke="#2E353A" stroke-width="0.5" stroke-linecap="round" stroke-linejoin="round"/>
<path d="M28.8208 69.4082C28.8208 69.4082 28.7388 70.1356 28.6772 71.2114" stroke="#2E353A" stroke-width="0.5" stroke-linecap="round" stroke-linejoin="round"/>
<path d="M59.019 80.8984H175.252C176.704 80.8984 178.095 81.4743 179.121 82.4994C180.147 83.5244 180.724 84.9147 180.724 86.3643V161.668C180.724 162.453 180.569 163.23 180.268 163.955C179.968 164.681 179.527 165.34 178.971 165.895C178.415 166.45 177.756 166.89 177.03 167.191C176.304 167.491 175.526 167.646 174.74 167.646H59.5318C58.746 167.646 57.9678 167.491 57.2418 167.191C56.5157 166.89 55.856 166.45 55.3003 165.895C54.7447 165.34 54.3039 164.681 54.0031 163.955C53.7024 163.23 53.5476 162.453 53.5476 161.668V86.3643C53.5476 84.9147 54.1241 83.5244 55.1502 82.4994C56.1762 81.4743 57.5679 80.8984 59.019 80.8984Z" fill="white" stroke="#2E353A" stroke-linecap="round" stroke-linejoin="round"/>
<path d="M101.56 89.438H94.4011V94.1355H101.56V89.438Z" fill="#2E353A"/>
<path d="M78.3664 118.417H71.7207V125.005H78.3664V118.417Z" fill="#2E353A"/>
<path d="M107.728 95.2625H101.031V101.85H107.728V95.2625Z" fill="#2E353A"/>
<path d="M93.2679 89.438H86.1094V94.1355H93.2679V89.438Z" fill="#2E353A"/>
<path d="M115.554 95.2625H108.857V101.85H115.554V95.2625Z" fill="#2E353A"/>
<path d="M109.846 89.438H102.688V94.1355H109.846V89.438Z" fill="#2E353A"/>
<path d="M74.3514 110.697H61.7573V117.285H74.3514V110.697Z" fill="#2E353A"/>
<path d="M92.0732 95.2625H85.3762V101.85H92.0732V95.2625Z" fill="#2E353A"/>
<path d="M70.5926 118.417H61.7573V125.005H70.5926V118.417Z" fill="#2E353A"/>
<path d="M118.138 89.438H110.979V94.1355H118.138V89.438Z" fill="#2E353A"/>
<path d="M76.4177 95.2625H69.7207V101.85H76.4177V95.2625Z" fill="#2E353A"/>
<path d="M76.6895 89.438H69.531V94.1355H76.6895V89.438Z" fill="#2E353A"/>
<path d="M84.9813 89.438H77.8228V94.1355H84.9813V89.438Z" fill="#2E353A"/>
<path d="M84.2429 95.2625H77.5459V101.85H84.2429V95.2625Z" fill="#2E353A"/>
<path d="M99.8984 95.2625H93.2014V101.85H99.8984V95.2625Z" fill="#2E353A"/>
<path d="M151.3 89.438H144.142V94.1355H151.3V89.438Z" fill="#2E353A"/>
<path d="M159.587 89.438H152.428V94.1355H159.587V89.438Z" fill="#2E353A"/>
<path d="M154.695 95.2625H147.998V101.85H154.695V95.2625Z" fill="#2E353A"/>
<path d="M162.525 95.2625H155.828V101.85H162.525V95.2625Z" fill="#2E353A"/>
<path d="M174.909 118.417H165.048V125.005H174.909V118.417Z" fill="#2E353A"/>
<path d="M167.878 89.438H160.72V94.1355H167.878V89.438Z" fill="#2E353A"/>
<path d="M68.5928 95.2625H61.7573V101.85H68.5928V95.2625Z" fill="#2E353A"/>
<path d="M126.43 89.438H119.271V94.1355H126.43V89.438Z" fill="#2E353A"/>
<path d="M134.717 89.438H127.558V94.1355H134.717V89.438Z" fill="#2E353A"/>
<path d="M131.214 95.2625H124.517V101.85H131.214V95.2625Z" fill="#2E353A"/>
<path d="M146.87 95.2625H140.173V101.85H146.87V95.2625Z" fill="#2E353A"/>
<path d="M123.384 95.2625H116.687V101.85H123.384V95.2625Z" fill="#2E353A"/>
<path d="M139.039 95.2625H132.342V101.85H139.039V95.2625Z" fill="#2E353A"/>
<path d="M143.008 89.438H135.85V94.1355H143.008V89.438Z" fill="#2E353A"/>
<path d="M132.809 118.417H126.163V125.005H132.809V118.417Z" fill="#2E353A"/>
<path d="M167.678 110.697H161.033V117.285H167.678V110.697Z" fill="#2E353A"/>
<path d="M159.899 110.697H153.254V117.285H159.899V110.697Z" fill="#2E353A"/>
<path d="M163.915 118.417H157.269V125.005H163.915V118.417Z" fill="#2E353A"/>
<path d="M156.141 118.417H149.495V125.005H156.141V118.417Z" fill="#2E353A"/>
<path d="M140.583 118.417H133.937V125.005H140.583V118.417Z" fill="#2E353A"/>
<path d="M148.362 118.417H141.716V125.005H148.362V118.417Z" fill="#2E353A"/>
<path d="M152.121 110.697H145.475V117.285H152.121V110.697Z" fill="#2E353A"/>
<path d="M144.347 110.697H137.701V117.285H144.347V110.697Z" fill="#2E353A"/>
<path d="M174.914 89.438H169.012V94.1355H174.914V89.438Z" fill="#2E353A"/>
<path d="M68.403 89.438H61.7573V94.1355H68.403V89.438Z" fill="#2E353A"/>
<path d="M174.914 126.132H61.7573V132.981H174.914V126.132Z" fill="#2E353A"/>
<path d="M174.909 95.2625H163.653V101.85H174.909V95.2625Z" fill="#2E353A"/>
<path d="M174.909 110.697H168.807V117.285H174.909V110.697Z" fill="#2E353A"/>
<path d="M166.93 109.519H165.797V102.982H159.151V109.519H158.023V102.982H151.377V109.519H150.244V102.982H143.598V109.519H142.465V102.982H135.819V109.519H134.691V102.982H128.045V109.519H126.912V102.982H120.266V109.519H119.133V102.982H112.487V109.519H111.359V102.982H104.713V109.519H103.58V102.982H96.9345V109.519H95.8012V102.982H89.1555V109.519H88.0274V102.982H81.3817V109.519H80.2484V102.982H73.6027V109.519H72.4694V102.982H61.7573V109.57H174.909V102.982H166.93V109.519Z" fill="#2E353A"/>
<path d="M113.236 110.697H106.59V117.285H113.236V110.697Z" fill="#2E353A"/>
<path d="M136.568 110.697H129.922V117.285H136.568V110.697Z" fill="#2E353A"/>
<path d="M97.6831 110.697H91.0374V117.285H97.6831V110.697Z" fill="#2E353A"/>
<path d="M101.698 118.417H95.0525V125.005H101.698V118.417Z" fill="#2E353A"/>
<path d="M105.457 110.697H98.8113V117.285H105.457V110.697Z" fill="#2E353A"/>
<path d="M89.904 110.697H83.2583V117.285H89.904V110.697Z" fill="#2E353A"/>
<path d="M86.1452 118.417H79.4995V125.005H86.1452V118.417Z" fill="#2E353A"/>
<path d="M93.9192 118.417H87.2734V125.005H93.9192V118.417Z" fill="#2E353A"/>
<path d="M121.015 110.697H114.369V117.285H121.015V110.697Z" fill="#2E353A"/>
<path d="M125.03 118.417H118.384V125.005H125.03V118.417Z" fill="#2E353A"/>
<path d="M128.789 110.697H122.143V117.285H128.789V110.697Z" fill="#2E353A"/>
<path d="M109.477 118.417H102.832V125.005H109.477V118.417Z" fill="#2E353A"/>
<path d="M117.251 118.417H110.605V125.005H117.251V118.417Z" fill="#2E353A"/>
<path d="M82.1252 110.697H75.4795V117.285H82.1252V110.697Z" fill="#2E353A"/>
<path d="M187.985 33.77H45.6044C44.9062 33.7706 44.2174 33.9315 43.5914 34.2404C42.9654 34.5493 42.4188 34.9979 41.9941 35.5515C41.5693 36.1051 41.2776 36.7489 41.1416 37.433C41.0057 38.1172 41.029 38.8234 41.2098 39.4972L51.6194 78.2143C51.8788 79.1807 52.45 80.0348 53.2445 80.6442C54.0389 81.2535 55.0124 81.5842 56.014 81.585H70.5464V84.2641H163.715V81.6004H177.56C178.561 81.5996 179.535 81.2689 180.329 80.6595C181.124 80.0502 181.695 79.1961 181.954 78.2296L192.364 39.5125C192.547 38.8391 192.573 38.1325 192.439 37.4475C192.305 36.7625 192.016 36.1174 191.592 35.5623C191.169 35.0071 190.623 34.5567 189.998 34.2459C189.372 33.9351 188.683 33.7723 187.985 33.77Z" fill="#2E353A" stroke="#2E353A" stroke-linecap="round" stroke-linejoin="round"/>
<path d="M171.883 78.1683H61.7058L50.686 38.5547H182.898L171.883 78.1683Z" fill="#20C4B2" stroke="#2E353A" stroke-linecap="round" stroke-linejoin="round"/>
<path d="M69.0182 60.7817V61.294H67.0747V60.7817H69.0182Z" fill="#2E353A"/>
<path d="M71.4386 60.7817V61.294H69.49V60.7817H71.4386Z" fill="#2E353A"/>
<path d="M73.859 60.7817V61.294H71.9258V60.7817H73.859Z" fill="#2E353A"/>
<path d="M76.2743 60.7817V61.294H74.3308V60.7817H76.2743Z" fill="#2E353A"/>
<path d="M78.6944 60.7817V61.294H76.7458V60.7817H78.6944Z" fill="#2E353A"/>
<path d="M81.1149 60.7817V61.294H79.1663V60.7817H81.1149Z" fill="#2E353A"/>
<path d="M83.5301 60.7817V61.294H81.5867V60.7817H83.5301Z" fill="#2E353A"/>
<path d="M85.9249 63.4816L83.7815 57.7749H84.2943L86.4377 63.4816H85.9249Z" fill="#2E353A"/>
<path d="M67.0594 52.4729V52.9852H65.116V52.4729H67.0594Z" fill="#2E353A"/>
<path d="M69.4798 52.4729V52.9852H67.5364V52.4729H69.4798Z" fill="#2E353A"/>
<path d="M71.9259 52.4729V52.9852H69.9773V52.4729H71.9259Z" fill="#2E353A"/>
<path d="M74.3204 52.4729V52.9852H72.3718V52.4729H74.3204Z" fill="#2E353A"/>
<path d="M76.7357 52.4729V52.9852H74.7922V52.4729H76.7357Z" fill="#2E353A"/>
<path d="M80.8277 52.4729V52.9852H78.8792V52.4729H80.8277Z" fill="#2E353A"/>
<path d="M83.243 52.4729V52.9852H81.2996V52.4729H83.243Z" fill="#2E353A"/>
<path d="M85.6634 52.4729V52.9852H83.72V52.4729H85.6634Z" fill="#2E353A"/>
<path d="M88.0836 52.4729V52.9852H86.135V52.4729H88.0836Z" fill="#2E353A"/>
<path d="M90.4989 52.4729V52.9852H88.5554V52.4729H90.4989Z" fill="#2E353A"/>
<path d="M92.9193 52.4729V52.9852H90.9758V52.4729H92.9193Z" fill="#2E353A"/>
<path d="M95.3397 52.4729V52.9852H93.3911V52.4729H95.3397Z" fill="#2E353A"/>
<path d="M99.4266 52.4729V52.9852H97.4832V52.4729H99.4266Z" fill="#2E353A"/>
<path d="M101.847 52.4729V52.9852H99.8982V52.4729H101.847Z" fill="#2E353A"/>
<path d="M104.267 52.4729V52.9852H102.319V52.4729H104.267Z" fill="#2E353A"/>
<path d="M108.334 52.4729V52.9852H106.39V52.4729H108.334Z" fill="#2E353A"/>
<path d="M110.775 52.4729V52.9852H108.846V52.4729H110.775Z" fill="#2E353A"/>
<path d="M113.195 52.4729V52.9852H111.246V52.4729H113.195Z" fill="#2E353A"/>
<path d="M122.292 52.4729V52.9852H120.348V52.4729H122.292Z" fill="#2E353A"/>
<path d="M124.712 52.4729V52.9852H122.763V52.4729H124.712Z" fill="#2E353A"/>
<path d="M127.132 52.4729V52.9852H125.184V52.4729H127.132Z" fill="#2E353A"/>
<path d="M129.548 52.4729V52.9852H127.604V52.4729H129.548Z" fill="#2E353A"/>
<path d="M131.968 52.4729V52.9852H130.019V52.4729H131.968Z" fill="#2E353A"/>
<path d="M136.055 52.4729V52.9852H134.111V52.4729H136.055Z" fill="#2E353A"/>
<path d="M138.475 52.4729V52.9852H136.537V52.4729H138.475Z" fill="#2E353A"/>
<path d="M140.896 52.4729V52.9852H138.947V52.4729H140.896Z" fill="#2E353A"/>
<path d="M144.983 52.4729V52.9852H143.039V52.4729H144.983Z" fill="#2E353A"/>
<path d="M149.075 52.4729V52.9852H147.126V52.4729H149.075Z" fill="#2E353A"/>
<path d="M181.503 136.664L176.016 157.81L181.206 159.332L181.503 136.664Z" fill="white" stroke="#2E353A" stroke-linecap="round" stroke-linejoin="round"/>
<path d="M183.965 114.314C183.345 113.363 183.119 112.21 183.334 111.097C183.616 109.012 186.134 108.535 186.134 108.535C186.134 108.535 186.682 108.12 188.698 108.884C190.713 109.647 206.297 111.757 216.255 113.105C226.213 114.452 229.439 113.581 229.3 116.998C229.162 120.415 220.424 151.079 220.29 152.042C220.157 153.005 183.965 114.314 183.965 114.314Z" fill="white" stroke="#2E353A" stroke-miterlimit="10"/>
<path d="M225.851 119.987L183.96 114.314L177.191 164.199L219.082 169.872L225.851 119.987Z" fill="white" stroke="#2E353A" stroke-linecap="round" stroke-linejoin="round"/>
<path d="M218.065 129.938L220.501 130.271" stroke="#2E353A" stroke-width="0.5" stroke-linecap="round" stroke-linejoin="round"/>
<path d="M202.81 127.873L216.137 129.682" stroke="#2E353A" stroke-width="0.5" stroke-linecap="round" stroke-linejoin="round"/>
<path d="M186.657 125.686L200.881 127.612" stroke="#2E353A" stroke-width="0.5" stroke-linecap="round" stroke-linejoin="round"/>
<path d="M214.25 133.938L219.901 134.707" stroke="#2E353A" stroke-width="0.5" stroke-linecap="round" stroke-linejoin="round"/>
<path d="M186.057 130.122L208.471 133.155" stroke="#2E353A" stroke-width="0.5" stroke-linecap="round" stroke-linejoin="round"/>
<path d="M197.43 136.177L219.301 139.138" stroke="#2E353A" stroke-width="0.5" stroke-linecap="round" stroke-linejoin="round"/>
<path d="M185.452 134.553L195.179 135.875" stroke="#2E353A" stroke-width="0.5" stroke-linecap="round" stroke-linejoin="round"/>
<path d="M204.697 141.679L218.696 143.574" stroke="#2E353A" stroke-width="0.5" stroke-linecap="round" stroke-linejoin="round"/>
<path d="M192.815 140.065L203.091 141.459" stroke="#2E353A" stroke-width="0.5" stroke-linecap="round" stroke-linejoin="round"/>
<path d="M184.852 138.99L191.046 139.83" stroke="#2E353A" stroke-width="0.5" stroke-linecap="round" stroke-linejoin="round"/>
<path d="M213.086 147.329L218.096 148.005" stroke="#2E353A" stroke-width="0.5" stroke-linecap="round" stroke-linejoin="round"/>
<path d="M184.252 143.426L209.717 146.873" stroke="#2E353A" stroke-width="0.5" stroke-linecap="round" stroke-linejoin="round"/>
<path d="M203.333 150.521L217.496 152.442" stroke="#2E353A" stroke-width="0.5" stroke-linecap="round" stroke-linejoin="round"/>
<path d="M183.647 147.857L200.923 150.198" stroke="#2E353A" stroke-width="0.5" stroke-linecap="round" stroke-linejoin="round"/>
<path d="M207.707 155.633L216.891 156.873" stroke="#2E353A" stroke-width="0.5" stroke-linecap="round" stroke-linejoin="round"/>
<path d="M189.082 153.107L205.461 155.326" stroke="#2E353A" stroke-width="0.5" stroke-linecap="round" stroke-linejoin="round"/>
<path d="M183.047 152.293L187.154 152.846" stroke="#2E353A" stroke-width="0.5" stroke-linecap="round" stroke-linejoin="round"/>
<path d="M225.854 119.989C225.854 119.989 226.572 113.033 229.136 115.83" stroke="#2E353A" stroke-linecap="round" stroke-linejoin="round"/>
<path d="M211.65 173.578L211.604 177.999L209.025 174.362L198.671 139.574L201.297 138.79L211.65 173.578Z" fill="white" stroke="#2E353A" stroke-linecap="round" stroke-linejoin="round"/>
<path d="M200.269 140.276L198.837 140.694L209.009 175.536L210.442 175.119L200.269 140.276Z" fill="#20C4B2" stroke="#2E353A" stroke-width="0.5" stroke-linecap="round" stroke-linejoin="round"/>
<path d="M211.65 173.588L209.03 174.367L211.604 177.999L211.65 173.588Z" stroke="#2E353A" stroke-linecap="round" stroke-linejoin="round"/>
<path d="M210.317 176.18L211.604 177.999L211.629 175.791L210.317 176.18Z" fill="#2E353A" stroke="#2E353A" stroke-linecap="round" stroke-linejoin="round"/>
<path d="M198.825 135.286C198.478 135.39 198.186 135.628 198.013 135.946C197.84 136.265 197.8 136.639 197.902 136.987L198.671 139.574L201.297 138.795L200.528 136.208C200.423 135.861 200.185 135.569 199.867 135.396C199.548 135.224 199.173 135.184 198.825 135.286Z" fill="white" stroke="#2E353A" stroke-linecap="round" stroke-linejoin="round"/>
<path d="M198.825 135.286C198.478 135.39 198.186 135.628 198.013 135.946C197.84 136.265 197.8 136.639 197.902 136.987L198.271 138.221L200.892 137.443L200.528 136.208C200.423 135.861 200.185 135.569 199.867 135.396C199.548 135.224 199.173 135.184 198.825 135.286Z" fill="#2E353A" stroke="#2E353A" stroke-linecap="round" stroke-linejoin="round"/>
<path d="M69.6952 114.739C69.3671 115.2 69.044 115.682 68.7209 116.189" stroke="white" stroke-linecap="round" stroke-linejoin="round"/>
<path d="M75.0591 108.571C73.6303 109.894 72.3083 111.328 71.1055 112.859" stroke="white" stroke-linecap="round" stroke-linejoin="round"/>
<path d="M69.2387 111.292C67.8377 113.255 66.5684 115.308 65.439 117.439" stroke="white" stroke-linecap="round" stroke-linejoin="round"/>
<path d="M105.406 122.556C105.083 123.017 104.754 123.499 104.431 124.001" stroke="white" stroke-linecap="round" stroke-linejoin="round"/>
<path d="M110.77 116.388C109.343 117.712 108.023 119.146 106.821 120.676" stroke="white" stroke-linecap="round" stroke-linejoin="round"/>
<path d="M104.955 119.098C103.554 121.073 102.285 123.136 101.155 125.276" stroke="white" stroke-linecap="round" stroke-linejoin="round"/>
<path d="M156.592 109.878C156.125 109.56 155.633 109.242 155.125 108.925" stroke="white" stroke-linecap="round" stroke-linejoin="round"/>
<path d="M162.848 115.144C161.5 113.741 160.044 112.444 158.495 111.266" stroke="white" stroke-linecap="round" stroke-linejoin="round"/>
<path d="M160.038 109.365C158.042 107.996 155.96 106.759 153.802 105.662" stroke="white" stroke-linecap="round" stroke-linejoin="round"/>
<path d="M103.847 141.638C103.58 143.564 103.18 146.249 102.78 147.842" stroke="#2E353A" stroke-linecap="round" stroke-linejoin="round"/>
<path d="M104.144 139.297C104.144 139.297 104.103 139.661 104.026 140.25" stroke="#2E353A" stroke-linecap="round" stroke-linejoin="round"/>
<path d="M105.513 144.763C104.953 146.629 104.268 148.455 103.462 150.229" stroke="#2E353A" stroke-linecap="round" stroke-linejoin="round"/>
<path d="M131.153 147.493C131.153 147.493 131.496 151.935 133.886 154.327" stroke="#2E353A" stroke-linecap="round" stroke-linejoin="round"/>
<path d="M130.809 151.935C130.809 151.935 131.835 155.008 133.886 156.376" stroke="#2E353A" stroke-linecap="round" stroke-linejoin="round"/>
<g style="mix-blend-mode:multiply">
<path d="M61.1572 175.673C61.1572 175.673 63.434 173.844 63.434 158.123C63.434 142.401 66.0543 130.916 69.2849 125.881C72.5155 120.845 75.5358 118.827 76.9511 118.827C78.3664 118.827 77.351 120.64 75.3358 123.258C73.3205 125.876 71.5053 127.29 70.6951 130.517C69.8849 133.744 69.89 137.77 70.9002 137.366C71.9104 136.961 73.5205 128.903 74.9307 125.881C76.3408 122.858 79.7765 119.027 81.7918 117.213C83.807 115.4 88.2478 109.96 90.263 111.368C92.2783 112.777 91.0732 114.795 89.863 115.6C88.6529 116.404 83.807 121.235 81.5918 124.267C79.3765 127.3 77.9613 134.948 79.1714 135.148C80.3816 135.347 84.0121 124.067 86.0274 121.649C88.0426 119.232 96.1139 112.577 97.9292 112.377C99.7444 112.178 99.9496 114.995 98.3343 116.409C96.719 117.823 91.2732 123.862 89.4579 127.489C87.6427 131.116 86.8325 137.77 88.4324 136.157C90.0323 134.543 92.668 127.894 94.8883 125.676C97.1087 123.458 103.765 116.409 105.38 117.213C106.995 118.017 106.59 120.036 105.18 121.445C103.77 122.853 98.3189 130.517 96.9087 134.543C95.4986 138.57 93.8782 149.86 94.6884 148.251C95.4986 146.643 98.1189 138.375 99.5291 134.933C100.939 131.49 103.765 129.897 104.17 131.505C104.575 133.114 103.765 133.923 102.754 137.555C101.744 141.187 101.729 150.874 98.724 156.294C95.7191 161.714 83.6583 173.312 82.0482 177.338C80.8818 180.111 79.4892 182.784 77.8843 185.329" fill="#20C4B2"/>
</g>
<g style="mix-blend-mode:multiply">
<path d="M173.227 177.036C173.227 177.036 170.894 173.844 170.894 158.123C170.894 142.401 168.268 130.916 165.043 125.881C161.817 120.845 158.787 118.827 157.377 118.827C155.966 118.827 156.971 120.64 158.992 123.258C161.012 125.876 162.822 127.29 163.607 130.517C164.391 133.744 164.417 137.77 163.407 137.366C162.397 136.961 160.787 128.903 159.371 125.881C157.956 122.858 154.531 119.027 152.515 117.213C150.5 115.4 146.059 109.96 144.039 111.368C142.019 112.777 143.234 114.795 144.444 115.6C145.654 116.404 150.495 121.235 152.715 124.267C154.936 127.3 156.346 134.948 155.136 135.148C153.925 135.347 150.31 124.067 148.295 121.66C146.28 119.252 138.203 112.587 136.388 112.388C134.573 112.188 134.373 115.005 135.988 116.419C137.603 117.833 143.049 123.873 144.865 127.5C146.68 131.126 147.485 137.781 145.89 136.167C144.295 134.553 141.654 127.904 139.439 125.686C137.224 123.468 130.563 116.419 128.948 117.223C127.332 118.028 127.737 120.046 129.148 121.455C130.558 122.864 136.009 130.527 137.419 134.553C138.829 138.58 140.444 149.87 139.639 148.262C138.834 146.653 136.209 138.385 134.799 134.943C133.388 131.5 130.563 129.907 130.158 131.516C129.753 133.124 130.563 133.934 131.568 137.566C132.573 141.198 132.594 150.885 135.604 156.304C138.614 161.724 150.331 172.302 151.946 176.334C153.561 180.365 156.484 186.718 156.484 186.718" fill="#20C4B2"/>
</g>
<path d="M60.3882 179.546C60.3882 179.546 63.4136 169.674 63.4136 153.932C63.4136 138.19 66.034 126.726 69.2645 121.69C72.4951 116.655 75.5154 114.636 76.9307 114.636C78.346 114.636 77.3307 116.45 75.3154 119.068C73.3002 121.685 71.4849 123.099 70.6747 126.321C69.8645 129.543 69.8696 133.58 70.8798 133.175C71.89 132.771 73.5001 124.713 74.9103 121.69C76.3205 118.668 79.7561 114.836 81.7714 113.023C83.7866 111.209 88.2274 105.769 90.2426 107.178C92.2579 108.587 91.0528 110.605 89.8427 111.409C88.6325 112.213 83.7866 117.044 81.5714 120.077C79.3562 123.109 77.9409 130.757 79.1511 130.957C80.3612 131.157 83.9918 119.877 86.007 117.454C88.0223 115.031 96.0935 108.387 97.9088 108.187C99.7241 107.987 99.9292 110.805 98.3139 112.219C96.6986 113.632 91.2528 119.672 89.4376 123.299C87.6223 126.926 86.8121 133.58 88.412 131.966C90.0119 130.353 92.6476 123.704 94.868 121.485C97.0883 119.267 103.744 112.219 105.36 113.023C106.975 113.827 106.57 115.845 105.16 117.254C103.749 118.663 98.2985 126.321 96.8883 130.353C95.4782 134.384 93.8578 145.67 94.668 144.056C95.4782 142.442 98.0985 134.185 99.5087 130.737C100.919 127.289 103.744 125.696 104.149 127.31C104.555 128.924 103.744 129.728 102.734 133.355C101.724 136.981 101.709 146.674 98.7036 152.098C95.6987 157.523 83.9764 172.251 82.3611 176.283C80.7458 180.314 77.1153 189.181 77.1153 189.181" fill="white"/>
<path d="M60.3882 179.546C60.3882 179.546 63.4136 169.674 63.4136 153.932C63.4136 138.19 66.034 126.726 69.2645 121.69C72.4951 116.655 75.5154 114.636 76.9307 114.636C78.346 114.636 77.3307 116.45 75.3154 119.068C73.3002 121.685 71.4849 123.099 70.6747 126.321C69.8645 129.543 69.8696 133.58 70.8798 133.175C71.89 132.771 73.5001 124.713 74.9103 121.69C76.3205 118.668 79.7561 114.836 81.7714 113.023C83.7866 111.209 88.2274 105.769 90.2426 107.178C92.2579 108.587 91.0528 110.605 89.8427 111.409C88.6325 112.213 83.7866 117.044 81.5714 120.077C79.3562 123.109 77.9409 130.757 79.1511 130.957C80.3612 131.157 83.9918 119.877 86.007 117.454C88.0223 115.031 96.0935 108.387 97.9088 108.187C99.7241 107.987 99.9292 110.805 98.3139 112.219C96.6986 113.632 91.2528 119.672 89.4376 123.299C87.6223 126.926 86.8121 133.58 88.412 131.966C90.0119 130.353 92.6476 123.704 94.868 121.485C97.0883 119.267 103.744 112.219 105.36 113.023C106.975 113.827 106.57 115.845 105.16 117.254C103.749 118.663 98.2985 126.321 96.8883 130.353C95.4782 134.384 93.8578 145.67 94.668 144.056C95.4782 142.442 98.0985 134.185 99.5087 130.737C100.919 127.289 103.744 125.696 104.149 127.31C104.555 128.924 103.744 129.728 102.734 133.355C101.724 136.981 101.709 146.674 98.7036 152.098C95.6987 157.523 83.9764 172.251 82.3611 176.283C80.7458 180.314 77.1153 189.181 77.1153 189.181" stroke="#2E353A" stroke-linecap="round" stroke-linejoin="round"/>
<path d="M173.914 179.546C173.914 179.546 170.888 169.674 170.888 153.932C170.888 138.19 168.263 126.726 165.038 121.69C161.812 116.655 158.782 114.636 157.371 114.636C155.961 114.636 156.966 116.45 158.987 119.068C161.007 121.685 162.817 123.099 163.602 126.321C164.386 129.543 164.412 133.58 163.402 133.175C162.392 132.771 160.781 124.713 159.366 121.69C157.951 118.668 154.525 114.836 152.51 113.023C150.495 111.209 146.054 105.769 144.034 107.178C142.013 108.587 143.229 110.605 144.439 111.409C145.649 112.213 150.49 117.044 152.71 120.077C154.931 123.109 156.341 130.757 155.131 130.957C153.92 131.157 150.29 119.877 148.275 117.454C146.259 115.031 138.183 108.387 136.368 108.187C134.552 107.987 134.352 110.805 135.968 112.219C137.583 113.632 143.029 119.672 144.844 123.299C146.659 126.926 147.464 133.58 145.87 131.966C144.275 130.353 141.634 123.704 139.419 121.485C137.203 119.267 130.542 112.219 128.927 113.023C127.312 113.827 127.717 115.845 129.127 117.254C130.537 118.663 135.988 126.321 137.398 130.353C138.809 134.384 140.424 145.67 139.619 144.056C138.814 142.442 136.188 134.185 134.778 130.737C133.368 127.289 130.542 125.696 130.137 127.31C129.732 128.924 130.542 129.728 131.547 133.355C132.553 136.981 132.573 146.674 135.583 152.098C138.593 157.523 150.31 172.251 151.926 176.283C153.541 180.314 157.171 189.181 157.171 189.181" fill="white"/>
<path d="M173.914 179.546C173.914 179.546 170.888 169.674 170.888 153.932C170.888 138.19 168.263 126.726 165.038 121.69C161.812 116.655 158.782 114.636 157.371 114.636C155.961 114.636 156.966 116.45 158.987 119.068C161.007 121.685 162.817 123.099 163.602 126.321C164.386 129.543 164.412 133.58 163.402 133.175C162.392 132.771 160.781 124.713 159.366 121.69C157.951 118.668 154.525 114.836 152.51 113.023C150.495 111.209 146.054 105.769 144.034 107.178C142.013 108.587 143.229 110.605 144.439 111.409C145.649 112.213 150.49 117.044 152.71 120.077C154.931 123.109 156.341 130.757 155.131 130.957C153.92 131.157 150.29 119.877 148.275 117.454C146.259 115.031 138.183 108.387 136.368 108.187C134.552 107.987 134.352 110.805 135.968 112.219C137.583 113.632 143.029 119.672 144.844 123.299C146.659 126.926 147.464 133.58 145.87 131.966C144.275 130.353 141.634 123.704 139.419 121.485C137.203 119.267 130.542 112.219 128.927 113.023C127.312 113.827 127.717 115.845 129.127 117.254C130.537 118.663 135.988 126.321 137.398 130.353C138.809 134.384 140.424 145.67 139.619 144.056C138.814 142.442 136.188 134.185 134.778 130.737C133.368 127.289 130.542 125.696 130.137 127.31C129.732 128.924 130.542 129.728 131.547 133.355C132.553 136.981 132.573 146.674 135.583 152.098C138.593 157.523 150.31 172.251 151.926 176.283C153.541 180.314 157.171 189.181 157.171 189.181" stroke="#2E353A" stroke-linecap="round" stroke-linejoin="round"/>
<path d="M47.6196 210.282H78.3868C78.7868 208.745 79.2893 207.024 79.9252 205.159C82.3456 197.916 90.1809 188.859 90.1809 188.859C84.5652 183.918 77.9664 180.22 70.8181 178.009C59.024 174.382 50.3887 175.448 50.3887 175.448C51.9783 181.995 52.1531 188.806 50.9015 195.426C49.3631 202.885 48.3375 207.603 47.6196 210.282Z" fill="#2E353A" stroke="#2E353A" stroke-linecap="round" stroke-linejoin="round"/>
<path d="M155.715 210.282H187.682C186.657 207.628 184.442 201.865 182.226 196.102C179.201 188.254 180.411 177.691 179.201 177.691C177.991 177.691 164.397 176.785 157.751 178.895C151.105 181.006 143.547 187.045 143.547 187.045C146.968 191.017 149.91 195.377 152.31 200.037C153.853 203.303 154.997 206.742 155.715 210.282Z" fill="#2E353A" stroke="#2E353A" stroke-linecap="round" stroke-linejoin="round"/>
<path d="M66.839 181.697C66.6185 180.826 63.3366 182.138 63.3366 182.138C63.3366 182.138 64.434 177.989 62.6854 177.989C60.9368 177.989 60.7163 181.062 60.7163 181.062C60.7163 181.062 57.4345 179.756 57.4345 181.718C57.4345 183.68 59.6189 183.644 59.6189 183.644C59.6189 183.644 56.9935 186.922 58.9626 187.573C60.9317 188.224 62.2393 185.826 62.2393 185.826C62.2393 185.826 63.552 188.014 65.316 187.138C67.08 186.262 65.7519 184.3 65.7519 184.3C65.7519 184.3 67.0543 182.573 66.839 181.697ZM62.4649 184.976C62.2999 184.939 62.1485 184.857 62.0284 184.738C61.9082 184.619 61.8241 184.469 61.7858 184.304C61.7474 184.14 61.7564 183.968 61.8116 183.808C61.8669 183.648 61.9661 183.507 62.098 183.402C62.2298 183.296 62.3889 183.23 62.5569 183.21C62.7249 183.191 62.8949 183.219 63.0474 183.292C63.1999 183.365 63.3287 183.48 63.4188 183.623C63.509 183.766 63.557 183.931 63.5571 184.1C63.5202 184.357 63.3868 184.591 63.184 184.753C62.9812 184.916 62.7242 184.995 62.4649 184.976ZM71.6489 206.184C71.4284 205.313 68.1466 206.624 68.1466 206.624C68.1466 206.624 69.244 202.475 67.4902 202.475C65.7365 202.475 65.5262 205.548 65.5262 205.548C65.5262 205.548 62.2444 204.237 62.2444 206.199C62.2444 208.161 64.434 208.166 64.434 208.166C64.434 208.166 61.8085 211.445 63.7776 212.1C65.7467 212.756 67.0543 210.348 67.0543 210.348C67.0543 210.348 68.3671 212.536 70.1311 211.66C71.8951 210.784 70.5669 208.822 70.5669 208.822C70.5669 208.822 71.8643 207.034 71.6489 206.184ZM67.2748 209.462C67.1098 209.426 66.9585 209.343 66.8383 209.224C66.7182 209.105 66.6341 208.955 66.5957 208.79C66.5574 208.626 66.5663 208.454 66.6216 208.294C66.6768 208.135 66.7761 207.994 66.9079 207.888C67.0398 207.782 67.1989 207.716 67.3668 207.697C67.5348 207.677 67.7048 207.706 67.8573 207.779C68.0098 207.852 68.1386 207.966 68.2288 208.109C68.319 208.252 68.3669 208.417 68.3671 208.586C68.3301 208.841 68.1957 209.072 67.9922 209.231C67.7886 209.389 67.5316 209.463 67.2748 209.437V209.462ZM52.404 209.462C52.1835 208.586 48.9068 209.898 48.9068 209.898C48.9068 209.898 49.9991 205.748 48.2505 205.748C46.5018 205.748 46.2813 208.822 46.2813 208.822C46.2813 208.822 42.9995 207.51 42.9995 209.478C42.9995 211.445 45.1891 211.445 45.1891 211.445C45.1891 211.445 42.5636 214.718 44.5327 215.374C46.5018 216.029 47.8095 213.627 47.8095 213.627C47.8095 213.627 49.1222 215.809 50.8862 214.938C52.6502 214.067 51.3272 212.1 51.3272 212.1C51.3272 212.1 52.6245 210.307 52.4092 209.437L52.404 209.462ZM48.03 212.736C47.8647 212.699 47.7132 212.616 47.593 212.497C47.4727 212.378 47.3887 212.227 47.3505 212.063C47.3124 211.898 47.3217 211.726 47.3773 211.566C47.433 211.406 47.5327 211.265 47.665 211.16C47.7974 211.054 47.9569 210.988 48.1251 210.97C48.2934 210.951 48.4635 210.98 48.6159 211.054C48.7683 211.127 48.8967 211.243 48.9863 211.386C49.0759 211.53 49.123 211.696 49.1222 211.865C49.084 212.118 48.9499 212.347 48.7476 212.504C48.5453 212.661 48.2902 212.735 48.0351 212.71L48.03 212.736ZM76.2332 192.424H78.6382C80.3868 192.424 81.479 194.391 81.479 194.391C77.7665 195.457 76.2384 192.399 76.2384 192.399L76.2332 192.424ZM73.8283 209.462H76.2332C77.9818 209.462 79.0741 211.429 79.0741 211.429C75.3615 212.495 73.8334 209.437 73.8334 209.437L73.8283 209.462ZM52.845 206.184H55.25C56.9986 206.184 58.0908 208.151 58.0908 208.151C54.3731 209.216 52.845 206.184 52.845 206.184ZM64.4699 190.77L65.8749 192.721C66.9005 194.145 65.9313 196.174 65.9313 196.174C62.8751 193.771 64.4699 190.744 64.4699 190.744V190.77ZM52.4399 197.296L53.5373 195.16C54.3424 193.623 56.5884 193.531 56.5884 193.531C55.8346 197.332 52.4399 197.296 52.4399 197.296Z" fill="white"/>
<path d="M169.812 185.847C169.591 184.976 166.309 186.287 166.309 186.287C166.309 186.287 167.407 182.138 165.658 182.138C163.91 182.138 163.689 185.212 163.689 185.212C163.689 185.212 160.407 183.905 160.407 185.867C160.407 187.829 162.597 187.834 162.597 187.834C162.597 187.834 159.971 191.113 161.94 191.769C163.91 192.424 165.217 190.017 165.217 190.017C165.217 190.017 166.53 192.204 168.294 191.328C170.058 190.452 168.73 188.49 168.73 188.49C168.73 188.49 170.027 186.718 169.812 185.847ZM165.438 189.125C165.273 189.089 165.121 189.006 165.001 188.887C164.881 188.768 164.797 188.618 164.759 188.453C164.72 188.289 164.729 188.117 164.784 187.957C164.84 187.798 164.939 187.657 165.071 187.551C165.203 187.445 165.362 187.379 165.53 187.36C165.698 187.34 165.868 187.369 166.02 187.442C166.173 187.515 166.301 187.629 166.392 187.772C166.482 187.915 166.53 188.08 166.53 188.249C166.499 188.509 166.367 188.746 166.163 188.91C165.959 189.074 165.698 189.151 165.438 189.125ZM180.083 202.885C179.868 202.009 176.586 203.32 176.586 203.32C176.586 203.32 177.678 199.171 175.929 199.171C174.181 199.171 173.965 202.244 173.965 202.244C173.965 202.244 170.683 200.933 170.683 202.9C170.683 204.867 172.868 204.867 172.868 204.867C172.868 204.867 170.248 208.141 172.217 208.796C174.186 209.452 175.493 207.049 175.493 207.049C175.493 207.049 176.806 209.232 178.57 208.361C180.334 207.49 179.006 205.523 179.006 205.523C179.006 205.523 180.303 203.756 180.083 202.885ZM175.714 206.184C175.549 206.147 175.397 206.064 175.277 205.945C175.157 205.826 175.073 205.676 175.035 205.511C174.996 205.346 175.006 205.174 175.061 205.014C175.117 204.854 175.217 204.714 175.349 204.608C175.481 204.502 175.641 204.437 175.809 204.418C175.977 204.399 176.148 204.428 176.3 204.502C176.452 204.576 176.581 204.691 176.67 204.834C176.76 204.978 176.807 205.144 176.806 205.313C176.774 205.572 176.642 205.808 176.438 205.971C176.234 206.133 175.974 206.21 175.714 206.184ZM169.155 209.462C168.935 208.586 165.658 209.898 165.658 209.898C165.658 209.898 166.75 205.748 165.002 205.748C163.253 205.748 163.033 208.822 163.033 208.822C163.033 208.822 159.751 207.511 159.751 209.478C159.751 211.445 161.94 211.445 161.94 211.445C161.94 211.445 159.315 214.718 161.284 215.374C163.253 216.03 164.561 213.627 164.561 213.627C164.561 213.627 165.874 215.809 167.638 214.938C169.402 214.068 168.079 212.1 168.079 212.1C168.079 212.1 169.355 210.307 169.155 209.437V209.462ZM164.781 212.736C164.616 212.699 164.465 212.616 164.344 212.497C164.224 212.378 164.14 212.227 164.102 212.063C164.064 211.898 164.073 211.726 164.129 211.566C164.184 211.406 164.284 211.265 164.416 211.16C164.549 211.054 164.708 210.988 164.877 210.97C165.045 210.951 165.215 210.98 165.367 211.054C165.52 211.127 165.648 211.243 165.738 211.386C165.827 211.53 165.874 211.696 165.874 211.865C165.835 212.119 165.701 212.349 165.497 212.506C165.294 212.664 165.037 212.737 164.781 212.71V212.736ZM179.211 196.574H181.616C183.365 196.574 184.457 198.541 184.457 198.541C180.739 199.606 179.211 196.548 179.211 196.548V196.574ZM153.413 209.001H155.818C157.566 209.001 158.659 210.963 158.659 210.963C154.941 212.059 153.413 209.001 153.413 209.001ZM167.443 194.914L168.848 196.866C169.873 198.29 168.904 200.318 168.904 200.318C165.848 197.921 167.443 194.914 167.443 194.914ZM181.662 207.126L183.062 209.078C184.088 210.497 183.119 212.531 183.119 212.531C180.062 210.149 181.662 207.126 181.662 207.126ZM155.392 201.445L156.49 199.309C157.295 197.772 159.566 197.68 159.566 197.68C158.807 201.481 155.387 201.445 155.387 201.445H155.392Z" fill="white"/>
</svg>
