<svg width="1055" height="593" viewBox="0 0 1055 593" fill="none" xmlns="http://www.w3.org/2000/svg">
<mask id="mask0_50_6925" style="mask-type:alpha" maskUnits="userSpaceOnUse" x="0" y="0" width="1055" height="593">
<rect width="1055" height="593" fill="#D9D9D9"/>
</mask>
<g mask="url(#mask0_50_6925)">
<path opacity="0.3" fill-rule="evenodd" clip-rule="evenodd" d="M78.8595 593V514.459H159.626V593H160.626V514.459H241.393V593H242.393V514.459H323.159V593H324.159V514.459H404.926V593H405.926V514.459H486.693V593H487.693V514.459H568.459V593H569.459V514.459H647.28V593H648.28V514.459H729.046V593H730.046V514.459H810.813V593H811.813V514.459H892.579V593H893.579V514.459H974.346V593H975.346V514.459H1056.11V593H1057.11V514.459H1137.88V593H1138.88V514.459H1217.42V513.459H1138.88V432.693H1217.42V431.693H1138.88V350.926H1217.42V349.926H1138.88V269.159H1217.42V268.159H1138.88V187.393H1217.42V186.393H1138.88V105.626H1217.42V104.626H1138.88V23.8596H1217.42V22.8596H1138.88V-55H1137.88V22.8596H1057.11V-55H1056.11V22.8596H975.346V-55H974.346V22.8596H893.579V-55H892.579V22.8596H811.813V-55H810.813V22.8596H730.046V-55H729.046V22.8596H648.28V-55H647.28V22.8596H569.459V-55H568.459V22.8596H487.692V-55H486.692V22.8596H405.926V-55H404.926V22.8596H324.159V-55H323.159V22.8596H242.393V-55H241.393V22.8596H160.626V-55H159.626V22.8596H78.8595V-55H77.8595V22.8596H2.14441e-05V23.8596H77.8595L77.8595 104.626H1.78701e-05V105.626H77.8595V186.393H1.42961e-05V187.393H77.8595L77.8595 268.159H1.07221e-05V269.159H77.8595V349.926H7.14804e-06V350.926H77.8595V431.693H3.57402e-06V432.693H77.8595L77.8595 513.459H0V514.459H77.8595V593H78.8595ZM569.459 23.8596V104.626H647.28V23.8596H569.459ZM647.28 105.626H569.459V186.393H647.28V105.626ZM647.28 187.393H569.459V268.159H647.28V187.393ZM647.28 269.159H569.459V349.926H647.28V269.159ZM647.28 350.926H569.459V431.693H647.28V350.926ZM647.28 432.693H569.459V513.459H647.28L647.28 432.693ZM159.626 513.459H78.8595L78.8595 432.693H159.626V513.459ZM159.626 431.693H78.8595V350.926H159.626L159.626 431.693ZM159.626 349.926H78.8595V269.159H159.626V349.926ZM159.626 268.159H78.8595L78.8595 187.393H159.626V268.159ZM159.626 186.393H78.8595V105.626H159.626L159.626 186.393ZM159.626 104.626H78.8595L78.8595 23.8596H159.626V104.626ZM160.626 104.626V23.8596H241.393V104.626H160.626ZM242.393 104.626V23.8596H323.159V104.626H242.393ZM324.159 104.626V23.8596H404.926V104.626H324.159ZM405.926 104.626V23.8596H486.692V104.626H405.926ZM487.692 104.626V23.8596H568.459V104.626H487.692ZM487.692 105.626H568.459V186.393H487.692V105.626ZM487.692 187.393H568.459V268.159H487.692V187.393ZM487.693 269.159H568.459V349.926H487.693V269.159ZM487.693 350.926H568.459V431.693H487.693V350.926ZM487.693 432.693H568.459V513.459H487.693V432.693ZM486.693 432.693V513.459H405.926V432.693H486.693ZM404.926 432.693V513.459H324.159V432.693H404.926ZM323.159 432.693V513.459H242.393V432.693H323.159ZM241.393 432.693V513.459H160.626V432.693H241.393ZM241.393 431.693H160.626L160.626 350.926H241.393L241.393 431.693ZM241.393 349.926H160.626V269.159H241.393V349.926ZM241.393 268.159H160.626V187.393H241.393V268.159ZM241.393 186.393H160.626L160.626 105.626H241.393L241.393 186.393ZM242.393 186.393L242.393 105.626H323.159V186.393H242.393ZM324.159 186.393V105.626H404.926L404.926 186.393H324.159ZM405.926 186.393L405.926 105.626H486.692V186.393H405.926ZM405.926 187.393H486.692V268.159H405.926V187.393ZM405.926 269.159H486.693V349.926H405.926V269.159ZM405.926 350.926H486.693V431.693H405.926L405.926 350.926ZM404.926 350.926L404.926 431.693H324.159V350.926H404.926ZM323.159 350.926V431.693H242.393L242.393 350.926H323.159ZM323.159 349.926H242.393V269.159H323.159V349.926ZM323.159 268.159H242.393V187.393H323.159V268.159ZM324.159 268.159V187.393H404.926V268.159H324.159ZM324.159 269.159H404.926V349.926H324.159V269.159ZM729.046 513.459H648.28L648.28 432.693H729.046V513.459ZM729.046 431.693H648.28V350.926H729.046V431.693ZM729.046 349.926H648.28V269.159H729.046V349.926ZM729.046 268.159H648.28V187.393H729.046V268.159ZM729.046 186.393H648.28V105.626H729.046V186.393ZM729.046 104.626H648.28V23.8596H729.046V104.626ZM730.046 104.626V23.8596H810.813V104.626H730.046ZM811.813 104.626V23.8596H892.579V104.626H811.813ZM893.579 104.626V23.8596H974.346V104.626H893.579ZM975.346 104.626V23.8596H1056.11V104.626H975.346ZM1057.11 104.626V23.8596H1137.88V104.626H1057.11ZM1057.11 105.626H1137.88V186.393H1057.11V105.626ZM1057.11 187.393H1137.88V268.159H1057.11V187.393ZM1057.11 269.159H1137.88V349.926H1057.11V269.159ZM1057.11 350.926H1137.88V431.693H1057.11V350.926ZM1057.11 432.693H1137.88V513.459H1057.11V432.693ZM1056.11 432.693V513.459H975.346V432.693H1056.11ZM974.346 432.693V513.459H893.579V432.693H974.346ZM892.579 432.693V513.459H811.813V432.693H892.579ZM810.813 432.693V513.459H730.046V432.693H810.813ZM810.813 431.693H730.046V350.926H810.813V431.693ZM810.813 349.926H730.046V269.159H810.813V349.926ZM810.813 268.159H730.046V187.393H810.813V268.159ZM810.813 186.393H730.046V105.626H810.813V186.393ZM811.813 186.393V105.626H892.579V186.393H811.813ZM893.579 186.393V105.626H974.346L974.346 186.393H893.579ZM975.346 186.393L975.346 105.626H1056.11V186.393H975.346ZM975.346 187.393H1056.11V268.159H975.346V187.393ZM975.346 269.159H1056.11V349.926H975.346V269.159ZM975.346 350.926H1056.11V431.693H975.346V350.926ZM974.346 350.926V431.693H893.579V350.926H974.346ZM892.579 350.926V431.693H811.813V350.926H892.579ZM892.579 349.926H811.813V269.159H892.579V349.926ZM892.579 268.159H811.813V187.393H892.579V268.159ZM893.579 268.159V187.393H974.346V268.159H893.579ZM893.579 269.159H974.346V349.926H893.579V269.159Z" fill="url(#paint0_radial_50_6925)"/>
</g>
<defs>
<radialGradient id="paint0_radial_50_6925" cx="0" cy="0" r="1" gradientUnits="userSpaceOnUse" gradientTransform="translate(608.71 269) rotate(90) scale(324 988.703)">
<stop stop-color="#20C4B2"/>
<stop offset="1" stop-color="#20C4B2" stop-opacity="0"/>
</radialGradient>
</defs>
</svg>
