<svg width="1506" height="802" viewBox="0 0 1506 802" fill="none" xmlns="http://www.w3.org/2000/svg">
<path fill-rule="evenodd" clip-rule="evenodd" d="M97.434 801.603L97.434 704.327H197.583V801.603H198.583V704.327H298.731V801.603H299.731V704.327H399.88V801.603H400.88V704.327H501.029V801.603H502.029V704.327H602.178V801.603H603.178V704.327H703.326V801.603H704.326V704.327H704.396H800.831V801.603H801.831V704.327H901.979V801.603H902.979V704.327H1003.13V801.603H1004.13V704.327H1104.28V801.603H1105.28V704.327H1205.43V801.603H1206.43V704.327H1306.57V801.603H1307.57V704.327H1407.72V801.603H1408.72V704.327H1506V703.327H1408.72V603.178H1506V602.178H1408.72V502.029H1506V501.029H1408.72V400.88H1506V399.88H1408.72V299.732H1506V298.732H1408.72V198.583H1506V197.583H1408.72V97.4342H1506V96.4342H1408.72V0H1407.72V96.4342H1307.57V0H1306.57V96.4342H1206.43V0H1205.43V96.4342H1105.28V0H1104.28V96.4342H1004.13V0H1003.13V96.4342H902.979V0H901.979V96.4342H801.831V0H800.831V96.4342H704.396H704.326V0H703.326V96.4342H603.178V0H602.178V96.4342H502.029V0H501.029V96.4342H400.88V0H399.88V96.4342H299.731V0H298.731V96.4342H198.583V0H197.583V96.4342H97.434L97.434 0H96.434L96.434 96.4342H2.65273e-05V97.4342H96.434V197.583H2.21061e-05V198.583H96.434L96.434 298.732H1.76849e-05V299.732H96.434V399.88H1.32636e-05V400.88H96.434V501.029H8.84243e-06V502.029H96.434L96.434 602.178H4.42122e-06V603.178H96.434V703.327H0V704.327H96.434L96.434 801.603H97.434ZM704.396 97.4342H704.326V197.583H704.396H800.831V97.4342H704.396ZM800.831 198.583H704.396H704.326V298.732H704.396H800.831V198.583ZM800.831 299.732H704.396H704.326V399.88H704.396H800.831V299.732ZM800.831 400.88H704.396H704.326V501.029H704.396H800.831V400.88ZM800.831 502.029H704.396H704.326V602.178H704.396H800.831V502.029ZM800.831 603.178H704.396H704.326V703.327H704.396H800.831V603.178ZM197.583 703.327H97.434V603.178H197.583V703.327ZM197.583 602.178H97.434L97.434 502.029H197.583L197.583 602.178ZM197.583 501.029H97.434V400.88H197.583V501.029ZM197.583 399.88H97.434V299.732H197.583V399.88ZM197.583 298.732H97.434L97.434 198.583H197.583L197.583 298.732ZM197.583 197.583H97.434V97.4342H197.583V197.583ZM198.583 197.583V97.4342H298.731V197.583H198.583ZM299.731 197.583V97.4342H399.88V197.583H299.731ZM400.88 197.583V97.4342H501.029V197.583H400.88ZM502.029 197.583V97.4342H602.178V197.583H502.029ZM603.178 197.583V97.4342H703.326V197.583H603.178ZM603.178 198.583H703.326V298.732H603.178V198.583ZM603.178 299.732H703.326V399.88H603.178V299.732ZM603.178 400.88H703.326V501.029H603.178V400.88ZM603.178 502.029H703.326V602.178H603.178V502.029ZM603.178 603.178H703.326V703.327H603.178V603.178ZM602.178 603.178V703.327H502.029V603.178H602.178ZM501.029 603.178V703.327H400.88V603.178H501.029ZM399.88 603.178V703.327H299.731V603.178H399.88ZM298.731 603.178V703.327H198.583V603.178H298.731ZM298.731 602.178H198.583L198.583 502.029H298.731V602.178ZM298.731 501.029H198.583V400.88H298.731V501.029ZM298.731 399.88H198.583V299.732H298.731V399.88ZM298.731 298.732H198.583L198.583 198.583H298.731V298.732ZM299.731 298.732V198.583H399.88V298.732H299.731ZM400.88 298.732V198.583H501.029V298.732H400.88ZM502.029 298.732V198.583H602.178V298.732H502.029ZM502.029 299.732H602.178V399.88H502.029V299.732ZM502.029 400.88H602.178V501.029H502.029V400.88ZM502.029 502.029H602.178V602.178H502.029V502.029ZM501.029 502.029V602.178H400.88V502.029H501.029ZM399.88 502.029V602.178H299.731V502.029H399.88ZM399.88 501.029H299.731V400.88H399.88V501.029ZM399.88 399.88H299.731V299.732H399.88V399.88ZM400.88 399.88V299.732H501.029V399.88H400.88ZM400.88 400.88H501.029V501.029H400.88V400.88ZM901.979 703.327H801.831V603.178H901.979V703.327ZM901.979 602.178H801.831V502.029H901.979V602.178ZM901.979 501.029H801.831V400.88H901.979V501.029ZM901.979 399.88H801.831V299.732H901.979V399.88ZM901.979 298.732H801.831V198.583H901.979V298.732ZM901.979 197.583H801.831V97.4342H901.979V197.583ZM902.979 197.583V97.4342H1003.13V197.583H902.979ZM1004.13 197.583V97.4342H1104.28V197.583H1004.13ZM1105.28 197.583V97.4342H1205.43V197.583H1105.28ZM1206.43 197.583V97.4342H1306.57V197.583H1206.43ZM1307.57 197.583V97.4342H1407.72V197.583H1307.57ZM1307.57 198.583H1407.72V298.732H1307.57V198.583ZM1307.57 299.732H1407.72V399.88H1307.57V299.732ZM1307.57 400.88H1407.72V501.029H1307.57V400.88ZM1307.57 502.029H1407.72V602.178H1307.57V502.029ZM1307.57 603.178H1407.72V703.327H1307.57V603.178ZM1306.57 603.178V703.327H1206.43V603.178H1306.57ZM1205.43 603.178V703.327H1105.28V603.178H1205.43ZM1104.28 603.178V703.327H1004.13V603.178H1104.28ZM1003.13 603.178V703.327H902.979V603.178H1003.13ZM1003.13 602.178H902.979V502.029H1003.13V602.178ZM1003.13 501.029H902.979V400.88H1003.13V501.029ZM1003.13 399.88H902.979V299.732H1003.13V399.88ZM1003.13 298.732H902.979V198.583H1003.13V298.732ZM1004.13 298.732V198.583H1104.28V298.732H1004.13ZM1105.28 298.732V198.583H1205.43V298.732H1105.28ZM1206.43 298.732V198.583H1306.57V298.732H1206.43ZM1206.43 299.732H1306.57V399.88H1206.43V299.732ZM1206.43 400.88H1306.57V501.029H1206.43V400.88ZM1206.43 502.029H1306.57V602.178H1206.43V502.029ZM1205.43 502.029V602.178H1105.28V502.029H1205.43ZM1104.28 502.029V602.178H1004.13V502.029H1104.28ZM1104.28 501.029H1004.13V400.88H1104.28V501.029ZM1104.28 399.88H1004.13V299.732H1104.28V399.88ZM1105.28 399.88V299.732H1205.43V399.88H1105.28ZM1105.28 400.88H1205.43V501.029H1105.28V400.88Z" fill="url(#paint0_radial_343_4871)"/>
<defs>
<radialGradient id="paint0_radial_343_4871" cx="0" cy="0" r="1" gradientUnits="userSpaceOnUse" gradientTransform="translate(753 400.802) rotate(90) scale(400.802 1223.07)">
<stop stop-color="#20C4B2"/>
<stop offset="1" stop-color="#20C4B2" stop-opacity="0"/>
</radialGradient>
</defs>
</svg>
