<svg width="360" height="676" viewBox="0 0 360 676" fill="none" xmlns="http://www.w3.org/2000/svg">
<path opacity="0.3" fill-rule="evenodd" clip-rule="evenodd" d="M2.8607e-05 43.7094L43.6389 43.7094L43.6389 88.6367L2.66431e-05 88.6367L2.66235e-05 89.0853L43.6389 89.0853L43.6389 134.013L2.46597e-05 134.013L2.46401e-05 134.461L43.6389 134.461L43.6389 179.388L2.26763e-05 179.388L2.26567e-05 179.837L43.6389 179.837L43.6389 224.764L2.06928e-05 224.764L2.06732e-05 225.213L43.6389 225.213L43.6389 270.14L1.87094e-05 270.14L1.86898e-05 270.589L43.6389 270.589L43.6389 315.516L1.67259e-05 315.516L1.67063e-05 315.965L43.6389 315.965L43.6389 315.996L43.6389 359.257L1.4814e-05 359.257L1.47944e-05 359.705L43.6389 359.705L43.6389 404.633L1.28305e-05 404.633L1.28109e-05 405.081L43.6389 405.081L43.6389 450.008L1.08471e-05 450.008L1.08275e-05 450.457L43.6389 450.457L43.6389 495.384L8.86364e-06 495.384L8.84403e-06 495.833L43.6389 495.833L43.6389 540.76L6.8802e-06 540.76L6.86059e-06 541.209L43.6389 541.209L43.6389 586.136L4.89676e-06 586.136L4.87715e-06 586.585L43.6389 586.585L43.6389 631.512L2.91332e-06 631.512L2.89371e-06 631.961L43.6389 631.961L43.6389 675.599L44.0875 675.599L44.0875 631.961L89.0147 631.961L89.0147 675.599L89.4633 675.599L89.4634 631.961L134.391 631.961L134.391 675.599L134.839 675.599L134.839 631.961L179.766 631.961L179.766 675.599L180.215 675.599L180.215 631.961L225.142 631.961L225.142 675.599L225.591 675.599L225.591 631.961L270.518 631.961L270.518 675.599L270.967 675.599L270.967 631.961L315.894 631.961L315.894 675.6L316.343 675.6L316.343 631.961L359.603 631.961L359.603 631.512L316.343 631.512L316.343 586.585L359.603 586.585L359.603 586.136L316.343 586.136L316.343 541.209L359.603 541.209L359.603 540.76L316.343 540.76L316.343 495.833L359.603 495.833L359.603 495.384L316.343 495.384L316.343 450.457L359.603 450.457L359.603 450.008L316.343 450.008L316.343 405.081L359.603 405.081L359.603 404.633L316.343 404.633L316.343 359.705L359.603 359.705L359.603 359.257L316.343 359.257L316.343 315.996L316.343 315.965L359.604 315.965L359.604 315.516L316.343 315.516L316.343 270.589L359.604 270.589L359.604 270.14L316.343 270.14L316.343 225.213L359.604 225.213L359.604 224.764L316.343 224.764L316.343 179.837L359.604 179.837L359.604 179.388L316.343 179.388L316.343 134.461L359.604 134.461L359.604 134.013L316.343 134.013L316.343 89.0853L359.604 89.0853L359.604 88.6367L316.343 88.6367L316.343 43.7094L359.604 43.7094L359.604 43.2608L316.343 43.2608L316.343 2.52681e-05L315.894 2.52485e-05L315.894 43.2608L270.967 43.2608L270.967 2.13013e-05L270.518 2.12817e-05L270.518 43.2608L225.591 43.2608L225.591 1.73344e-05L225.142 1.73148e-05L225.142 43.2608L180.215 43.2608L180.215 1.33676e-05L179.766 1.3348e-05L179.766 43.2608L134.839 43.2608L134.839 9.40079e-06L134.391 9.38118e-06L134.391 43.2608L89.4634 43.2608L89.4634 5.43397e-06L89.0148 5.41436e-06L89.0148 43.2608L44.0875 43.2608L44.0875 1.46715e-06L43.6389 1.44754e-06L43.6389 43.2608L2.86266e-05 43.2608L2.8607e-05 43.7094ZM315.894 315.996L315.894 315.965L270.967 315.965L270.967 315.996L270.967 359.257L315.894 359.257L315.894 315.996ZM270.518 359.257L270.518 315.996L270.518 315.965L225.591 315.965L225.591 315.996L225.591 359.257L270.518 359.257ZM225.142 359.257L225.142 315.996L225.142 315.965L180.215 315.965L180.215 315.996L180.215 359.257L225.142 359.257ZM179.766 359.257L179.766 315.996L179.766 315.965L134.839 315.965L134.839 315.996L134.839 359.257L179.766 359.257ZM134.391 359.257L134.391 315.996L134.391 315.965L89.4634 315.965L89.4634 315.996L89.4634 359.257L134.391 359.257ZM89.0148 359.257L89.0148 315.996L89.0148 315.965L44.0875 315.965L44.0875 315.996L44.0875 359.257L89.0148 359.257ZM44.0875 88.6367L44.0875 43.7094L89.0148 43.7094L89.0148 88.6367L44.0875 88.6367ZM89.4634 88.6367L89.4634 43.7094L134.391 43.7094L134.391 88.6367L89.4634 88.6367ZM134.839 88.6367L134.839 43.7094L179.766 43.7094L179.766 88.6367L134.839 88.6367ZM180.215 88.6367L180.215 43.7094L225.142 43.7094L225.142 88.6367L180.215 88.6367ZM225.591 88.6367L225.591 43.7094L270.518 43.7094L270.518 88.6367L225.591 88.6367ZM270.967 88.6367L270.967 43.7094L315.894 43.7094L315.894 88.6367L270.967 88.6367ZM270.967 89.0853L315.894 89.0853L315.894 134.013L270.967 134.013L270.967 89.0853ZM270.967 134.461L315.894 134.461L315.894 179.388L270.967 179.388L270.967 134.461ZM270.967 179.837L315.894 179.837L315.894 224.764L270.967 224.764L270.967 179.837ZM270.967 225.213L315.894 225.213L315.894 270.14L270.967 270.14L270.967 225.213ZM270.967 270.589L315.894 270.589L315.894 315.516L270.967 315.516L270.967 270.589ZM270.518 270.589L270.518 315.516L225.591 315.516L225.591 270.589L270.518 270.589ZM225.142 270.589L225.142 315.516L180.215 315.516L180.215 270.589L225.142 270.589ZM179.766 270.589L179.766 315.516L134.839 315.516L134.839 270.589L179.766 270.589ZM134.391 270.589L134.391 315.516L89.4634 315.516L89.4634 270.589L134.391 270.589ZM89.0148 270.589L89.0148 315.516L44.0875 315.516L44.0875 270.589L89.0148 270.589ZM89.0148 270.14L44.0875 270.14L44.0875 225.213L89.0148 225.213L89.0148 270.14ZM89.0148 224.764L44.0875 224.764L44.0875 179.837L89.0148 179.837L89.0148 224.764ZM89.0148 179.388L44.0875 179.388L44.0875 134.461L89.0148 134.461L89.0148 179.388ZM89.0148 134.013L44.0875 134.013L44.0875 89.0853L89.0148 89.0853L89.0148 134.013ZM89.4634 134.013L89.4634 89.0853L134.391 89.0853L134.391 134.013L89.4634 134.013ZM134.839 134.013L134.839 89.0853L179.766 89.0853L179.766 134.013L134.839 134.013ZM180.215 134.013L180.215 89.0853L225.142 89.0853L225.142 134.013L180.215 134.013ZM225.591 134.013L225.591 89.0853L270.518 89.0853L270.518 134.013L225.591 134.013ZM225.591 134.461L270.518 134.461L270.518 179.388L225.591 179.388L225.591 134.461ZM225.591 179.837L270.518 179.837L270.518 224.764L225.591 224.764L225.591 179.837ZM225.591 225.213L270.518 225.213L270.518 270.14L225.591 270.14L225.591 225.213ZM225.142 225.213L225.142 270.14L180.215 270.14L180.215 225.213L225.142 225.213ZM179.766 225.213L179.766 270.14L134.839 270.14L134.839 225.213L179.766 225.213ZM134.391 225.213L134.391 270.14L89.4634 270.14L89.4634 225.213L134.391 225.213ZM134.391 224.764L89.4634 224.764L89.4634 179.837L134.391 179.837L134.391 224.764ZM134.391 179.388L89.4634 179.388L89.4634 134.461L134.391 134.461L134.391 179.388ZM134.839 179.388L134.839 134.461L179.766 134.461L179.766 179.388L134.839 179.388ZM180.215 179.388L180.215 134.461L225.142 134.461L225.142 179.388L180.215 179.388ZM180.215 179.837L225.142 179.837L225.142 224.764L180.215 224.764L180.215 179.837ZM179.766 179.837L179.766 224.764L134.839 224.764L134.839 179.837L179.766 179.837ZM44.0875 404.633L44.0875 359.705L89.0148 359.705L89.0148 404.633L44.0875 404.633ZM89.4634 404.633L89.4634 359.705L134.391 359.705L134.391 404.633L89.4634 404.633ZM134.839 404.633L134.839 359.705L179.766 359.705L179.766 404.633L134.839 404.633ZM180.215 404.633L180.215 359.705L225.142 359.705L225.142 404.633L180.215 404.633ZM225.591 404.633L225.591 359.705L270.518 359.705L270.518 404.633L225.591 404.633ZM270.967 404.633L270.967 359.705L315.894 359.705L315.894 404.633L270.967 404.633ZM270.967 405.081L315.894 405.081L315.894 450.008L270.967 450.008L270.967 405.081ZM270.967 450.457L315.894 450.457L315.894 495.384L270.967 495.384L270.967 450.457ZM270.967 495.833L315.894 495.833L315.894 540.76L270.967 540.76L270.967 495.833ZM270.967 541.209L315.894 541.209L315.894 586.136L270.967 586.136L270.967 541.209ZM270.967 586.585L315.894 586.585L315.894 631.512L270.967 631.512L270.967 586.585ZM270.518 586.585L270.518 631.512L225.591 631.512L225.591 586.585L270.518 586.585ZM225.142 586.585L225.142 631.512L180.215 631.512L180.215 586.585L225.142 586.585ZM179.766 586.585L179.766 631.512L134.839 631.512L134.839 586.585L179.766 586.585ZM134.391 586.585L134.391 631.512L89.4634 631.512L89.4634 586.585L134.391 586.585ZM89.0147 586.585L89.0147 631.512L44.0875 631.512L44.0875 586.585L89.0147 586.585ZM89.0147 586.136L44.0875 586.136L44.0875 541.209L89.0147 541.209L89.0147 586.136ZM89.0147 540.76L44.0875 540.76L44.0875 495.833L89.0147 495.833L89.0147 540.76ZM89.0147 495.384L44.0875 495.384L44.0875 450.457L89.0148 450.457L89.0147 495.384ZM89.0148 450.008L44.0875 450.008L44.0875 405.081L89.0148 405.081L89.0148 450.008ZM89.4634 450.008L89.4634 405.081L134.391 405.081L134.391 450.008L89.4634 450.008ZM134.839 450.008L134.839 405.081L179.766 405.081L179.766 450.008L134.839 450.008ZM180.215 450.008L180.215 405.081L225.142 405.081L225.142 450.008L180.215 450.008ZM225.591 450.008L225.591 405.081L270.518 405.081L270.518 450.008L225.591 450.008ZM225.591 450.457L270.518 450.457L270.518 495.384L225.591 495.384L225.591 450.457ZM225.591 495.833L270.518 495.833L270.518 540.76L225.591 540.76L225.591 495.833ZM225.591 541.209L270.518 541.209L270.518 586.136L225.591 586.136L225.591 541.209ZM225.142 541.209L225.142 586.136L180.215 586.136L180.215 541.209L225.142 541.209ZM179.766 541.209L179.766 586.136L134.839 586.136L134.839 541.209L179.766 541.209ZM134.391 541.209L134.391 586.136L89.4634 586.136L89.4634 541.209L134.391 541.209ZM134.391 540.76L89.4634 540.76L89.4634 495.833L134.391 495.833L134.391 540.76ZM134.391 495.384L89.4634 495.384L89.4634 450.457L134.391 450.457L134.391 495.384ZM134.839 495.384L134.839 450.457L179.766 450.457L179.766 495.384L134.839 495.384ZM180.215 495.384L180.215 450.457L225.142 450.457L225.142 495.384L180.215 495.384ZM180.215 495.833L225.142 495.833L225.142 540.76L180.215 540.76L180.215 495.833ZM179.766 495.833L179.766 540.76L134.839 540.76L134.839 495.833L179.766 495.833Z" fill="url(#paint0_radial_412_29)"/>
<defs>
<radialGradient id="paint0_radial_412_29" cx="0" cy="0" r="1" gradientUnits="userSpaceOnUse" gradientTransform="translate(179.802 337.8) rotate(-180) scale(179.802 548.674)">
<stop stop-color="#20C4B2"/>
<stop offset="1" stop-color="#20C4B2" stop-opacity="0"/>
</radialGradient>
</defs>
</svg>
