<svg width="36" height="36" viewBox="0 0 36 36" fill="none" xmlns="http://www.w3.org/2000/svg">
<path d="M19.9256 12H4.05785C3.47603 12 3 12.476 3 13.0579V34.2149C3 34.7967 3.47603 35.2727 4.05785 35.2727H19.9256C20.5074 35.2727 20.9835 34.7967 20.9835 34.2149V13.0579C20.9835 12.476 20.5074 12 19.9256 12ZM18.8678 33.157H5.1157V14.1157H18.8678V33.157ZM7.6281 26.1488C7.6281 25.6463 8.05124 25.2231 8.55372 25.2231H11.6744C12.1769 25.2231 12.6 25.6463 12.6 26.1488C12.6 26.6512 12.1769 27.0744 11.6744 27.0744H8.55372C8.02479 27.0744 7.6281 26.6512 7.6281 26.1488ZM7.76033 21.9174C7.76033 21.4149 8.18347 20.9917 8.68595 20.9917H14.9802C15.4826 20.9917 15.9058 21.4149 15.9058 21.9174C15.9058 22.4198 15.5091 22.843 14.9802 22.843H8.68595C8.18347 22.843 7.76033 22.4198 7.76033 21.9174ZM7.76033 17.9504C7.76033 17.4479 8.18347 17.0248 8.68595 17.0248H14.9802C15.4826 17.0248 15.9058 17.4479 15.9058 17.9504C15.9058 18.4529 15.5091 18.876 14.9802 18.876H8.68595C8.18347 18.876 7.76033 18.4529 7.76033 17.9504ZM15.6149 25.5669C15.7736 25.7256 15.8793 25.9636 15.8793 26.2281C15.8793 26.4661 15.7736 26.7041 15.6149 26.8893C15.4562 27.0744 15.1917 27.1537 14.9537 27.1537C14.7157 27.1537 14.4777 27.0479 14.2926 26.8893C14.1074 26.7306 14.0281 26.4926 14.0281 26.2281C14.0281 25.9901 14.1339 25.7521 14.2926 25.5669C14.6364 25.2231 15.2711 25.2231 15.6149 25.5669Z" fill="white"/>
<path d="M32.9999 6.92796C32.9999 7.47684 32.5608 7.91595 32.0119 7.91595H28.0599V11.6484C28.0599 12.1973 27.6208 12.6364 27.0719 12.6364C26.523 12.6364 26.0839 12.1973 26.0839 11.6484V7.91595H22.3515C21.8026 7.91595 21.3635 7.47684 21.3635 6.92796C21.3635 6.37907 21.8026 5.93997 22.3515 5.93997H26.0839V1.98799C26.0839 1.43911 26.523 1 27.0719 1C27.6208 1 28.0599 1.43911 28.0599 1.98799V5.93997H32.0119C32.5608 5.93997 32.9999 6.37907 32.9999 6.92796Z" fill="white"/>
</svg>
