<svg width="36" height="36" viewBox="0 0 36 36" fill="none" xmlns="http://www.w3.org/2000/svg">
<path d="M23.2848 8.92737C23.599 9.10577 23.971 9.15266 24.3196 9.05781C24.6683 8.96295 24.9653 8.73405 25.1458 8.42105C25.2952 8.15744 25.5278 7.95085 25.8073 7.8337C26.0867 7.71655 26.3971 7.69545 26.6898 7.77371C26.9826 7.85198 27.241 8.02518 27.4247 8.26616C27.6084 8.50714 27.7069 8.80227 27.7048 9.10526C27.7048 9.46819 27.5606 9.81625 27.304 10.0729C27.0473 10.3295 26.6993 10.4737 26.3363 10.4737C25.9734 10.4737 25.6253 10.6179 25.3687 10.8745C25.1121 11.1311 24.9679 11.4792 24.9679 11.8421C24.9679 12.205 25.1121 12.5531 25.3687 12.8097C25.6253 13.0664 25.9734 13.2105 26.3363 13.2105C27.0568 13.2101 27.7645 13.02 28.3883 12.6594C29.0121 12.2988 29.53 11.7803 29.89 11.1562C30.2499 10.532 30.4393 9.82413 30.439 9.10362C30.4387 8.38311 30.2488 7.67536 29.8883 7.05149C29.5278 6.42763 29.0095 5.90961 28.3855 5.54951C27.7614 5.1894 27.0536 4.99988 26.333 5C25.6125 5.00012 24.9047 5.18986 24.2808 5.55016C23.6568 5.91047 23.1387 6.42865 22.7784 7.05263C22.688 7.20881 22.6293 7.38135 22.6058 7.56031C22.5822 7.73927 22.5944 7.92112 22.6414 8.09537C22.6885 8.26963 22.7696 8.43285 22.88 8.57564C22.9904 8.71843 23.128 8.83797 23.2848 8.92737ZM29.169 18.6842C28.8098 18.6376 28.4467 18.7353 28.1594 18.9559C27.8721 19.1765 27.684 19.502 27.6363 19.8611C27.3492 22.1807 26.2237 24.3154 24.472 25.8629C22.7203 27.4105 20.4632 28.2642 18.1258 28.2632H10.4763L11.3658 27.3737C11.6207 27.1173 11.7637 26.7705 11.7637 26.4089C11.7637 26.0474 11.6207 25.7006 11.3658 25.4442C10.0315 24.1047 9.12349 22.4003 8.75608 20.5456C8.38867 18.691 8.57832 16.7691 9.30113 15.0221C10.0239 13.275 11.2476 11.781 12.818 10.7281C14.3883 9.67516 16.2351 9.11052 18.1258 9.10526C18.4887 9.10526 18.8368 8.96109 19.0934 8.70446C19.3501 8.44783 19.4942 8.09977 19.4942 7.73684C19.4942 7.37391 19.3501 7.02585 19.0934 6.76922C18.8368 6.51259 18.4887 6.36842 18.1258 6.36842C15.8121 6.37807 13.548 7.03927 11.5927 8.27627C9.63742 9.51326 8.07015 11.276 7.07042 13.3626C6.0707 15.4492 5.67896 17.7751 5.94008 20.0741C6.2012 22.373 7.10463 24.5519 8.54686 26.3611L6.20686 28.66C6.01698 28.8524 5.88835 29.0968 5.83721 29.3623C5.78607 29.6277 5.8147 29.9024 5.91949 30.1516C6.02215 30.4015 6.19648 30.6154 6.42052 30.7664C6.64456 30.9174 6.90828 30.9987 7.17844 31H18.1258C21.1246 31.0004 24.0206 29.9066 26.2704 27.9239C28.5202 25.9411 29.9693 23.2056 30.3458 20.2305C30.3708 20.0516 30.3602 19.8695 30.3145 19.6947C30.2688 19.52 30.1889 19.356 30.0795 19.2122C29.9701 19.0685 29.8333 18.9478 29.677 18.8572C29.5208 18.7665 29.3481 18.7078 29.169 18.6842ZM26.8563 14.6747C26.6072 14.5645 26.3308 14.5312 26.0626 14.5789L25.8163 14.6611L25.57 14.7842L25.3648 14.9621C25.2417 15.0882 25.1441 15.2369 25.0774 15.4C24.9965 15.5707 24.9589 15.7587 24.9679 15.9474C24.9639 16.1299 24.9965 16.3113 25.0637 16.4811C25.1345 16.6453 25.2368 16.7941 25.3648 16.9189C25.4926 17.0458 25.6443 17.1461 25.811 17.2142C25.9777 17.2823 26.1562 17.3168 26.3363 17.3158C26.6993 17.3158 27.0473 17.1716 27.304 16.915C27.5606 16.6584 27.7048 16.3103 27.7048 15.9474C27.7094 15.7679 27.6719 15.5898 27.5953 15.4274C27.4482 15.0985 27.1852 14.8355 26.8563 14.6884V14.6747Z" fill="white"/>
</svg>
