<svg width="230" height="60" viewBox="0 0 230 60" fill="none" xmlns="http://www.w3.org/2000/svg">
<path d="M209.679 4.04001H215.439V20L221.279 12.28H228.079V12.64L220.839 21.56L229.199 31.56V32H222.279L215.439 23.32V32H209.679V4.04001Z" fill="#FF006D"/>
<path d="M199.212 14.52L199.412 12.24H204.812V32H199.612L199.292 29.52C198.679 30.48 197.786 31.2 196.612 31.68C195.466 32.16 194.332 32.4133 193.212 32.44C190.199 32.4667 187.746 31.56 185.852 29.72C183.959 27.8533 183.012 25.32 183.012 22.12C183.012 18.92 183.986 16.3867 185.932 14.52C187.906 12.6533 190.386 11.7467 193.372 11.8C194.652 11.8 195.812 12.04 196.852 12.52C197.919 13 198.706 13.6667 199.212 14.52ZM193.972 16.88C192.479 16.88 191.239 17.36 190.252 18.32C189.266 19.2533 188.772 20.52 188.772 22.12C188.772 23.72 189.266 24.9867 190.252 25.92C191.239 26.8533 192.479 27.32 193.972 27.32C195.519 27.32 196.772 26.8133 197.732 25.8C198.719 24.7867 199.212 23.6267 199.212 22.32C199.212 20.8 198.746 19.52 197.812 18.48C196.906 17.4133 195.626 16.88 193.972 16.88Z" fill="#FF006D"/>
<path d="M180.286 24H165.766C165.926 25.0133 166.473 25.8533 167.406 26.52C168.34 27.16 169.58 27.48 171.126 27.48C173.34 27.48 175.046 26.96 176.246 25.92L179.486 29.52C177.513 31.4667 174.686 32.44 171.006 32.44C167.486 32.44 164.753 31.4933 162.806 29.6C160.886 27.7067 159.926 25.1467 159.926 21.92C159.926 18.88 160.873 16.4267 162.766 14.56C164.66 12.6667 167.206 11.72 170.406 11.72C173.9 11.72 176.566 12.7867 178.406 14.92C180.273 17.0533 180.9 20.08 180.286 24ZM165.766 19.8H175.126C175.073 18.7867 174.593 18.0133 173.686 17.48C172.78 16.92 171.686 16.64 170.406 16.64C169.26 16.64 168.273 16.92 167.446 17.48C166.62 18.04 166.06 18.8133 165.766 19.8Z" fill="#FF006D"/>
<path d="M146.66 27.24C148.127 27.24 149.3 26.7733 150.18 25.84C151.06 24.88 151.5 23.6533 151.5 22.16C151.5 20.6933 151.06 19.48 150.18 18.52C149.327 17.56 148.154 17.08 146.66 17.08C145.194 17.08 143.94 17.4933 142.9 18.32C141.86 19.1467 141.34 20.4267 141.34 22.16C141.34 23.7333 141.874 24.9733 142.94 25.88C144.007 26.7867 145.247 27.24 146.66 27.24ZM141.26 40.72H135.46V12.28H140.62L140.98 14.8C142.474 12.88 144.66 11.92 147.54 11.92C150.447 11.92 152.794 12.8667 154.58 14.76C156.394 16.6267 157.3 19.0933 157.3 22.16C157.3 25.3067 156.394 27.8133 154.58 29.68C152.767 31.52 150.394 32.44 147.46 32.44C144.847 32.44 142.78 31.5067 141.26 29.64V40.72Z" fill="#FF006D"/>
<path d="M120.882 32.44C117.602 32.44 114.975 31.4933 113.002 29.6C111.055 27.68 110.082 25.2 110.082 22.16C110.082 19.1467 111.068 16.6667 113.042 14.72C115.042 12.7733 117.655 11.8 120.882 11.8C124.135 11.8 126.748 12.7733 128.722 14.72C130.722 16.6667 131.722 19.1467 131.722 22.16C131.722 25.2 130.735 27.68 128.762 29.6C126.815 31.4933 124.188 32.44 120.882 32.44ZM120.882 27.32C122.535 27.32 123.775 26.8267 124.602 25.84C125.455 24.8267 125.882 23.6 125.882 22.16C125.882 20.7733 125.455 19.56 124.602 18.52C123.748 17.48 122.508 16.96 120.882 16.96C119.282 16.96 118.055 17.48 117.202 18.52C116.348 19.56 115.922 20.7733 115.922 22.16C115.922 23.5467 116.335 24.76 117.162 25.8C118.015 26.8133 119.255 27.32 120.882 27.32Z" fill="#FF006D"/>
<path d="M106.633 32H100.833V21.56C100.833 18.4933 99.473 16.96 96.753 16.96C95.4463 16.9333 94.3663 17.4 93.513 18.36C92.6863 19.32 92.273 20.4667 92.273 21.8V32H86.593V12.24H91.793L91.993 14.76C93.5664 12.7067 95.6997 11.7067 98.393 11.76C103.886 11.76 106.633 15.0133 106.633 21.52V32Z" fill="#FF006D"/>
<path d="M62.2961 4H68.0961V14.68C69.5095 12.84 71.5095 11.92 74.0961 11.92C79.3495 11.92 81.9761 15.08 81.9761 21.4V32H76.2161V21.44C76.2161 20.08 75.8695 19.0267 75.1761 18.28C74.5095 17.5333 73.6028 17.16 72.4561 17.16C71.2028 17.16 70.1495 17.5867 69.2961 18.44C68.4695 19.2933 68.0561 20.48 68.0561 22V32H62.2961V4Z" fill="#FF006D"/>
<path d="M55.7037 25.64L59.3437 29.4C57.2904 31.4267 54.7171 32.44 51.6237 32.44C48.5304 32.44 45.9571 31.5733 43.9037 29.84C41.8504 28.1067 40.8237 25.5467 40.8237 22.16C40.8237 18.96 41.8637 16.44 43.9437 14.6C46.0237 12.7333 48.5704 11.8 51.5837 11.8C54.6237 11.8 57.0104 12.7067 58.7437 14.52L55.5437 18.16C54.5304 17.3867 53.2904 17 51.8237 17C50.3304 17 49.0904 17.4667 48.1037 18.4C47.1171 19.3067 46.6237 20.56 46.6237 22.16C46.6237 23.68 47.1171 24.8933 48.1037 25.8C49.0904 26.68 50.2904 27.12 51.7037 27.12C52.3971 27.12 53.1171 26.9867 53.8637 26.72C54.6371 26.4533 55.2504 26.0933 55.7037 25.64Z" fill="#FF006D"/>
<path d="M38.1378 24H23.6178C23.7778 25.0133 24.3245 25.8533 25.2578 26.52C26.1912 27.16 27.4312 27.48 28.9778 27.48C31.1912 27.48 32.8978 26.96 34.0978 25.92L37.3378 29.52C35.3645 31.4667 32.5378 32.44 28.8578 32.44C25.3378 32.44 22.6045 31.4933 20.6578 29.6C18.7378 27.7067 17.7778 25.1467 17.7778 21.92C17.7778 18.88 18.7245 16.4267 20.6178 14.56C22.5112 12.6667 25.0578 11.72 28.2578 11.72C31.7512 11.72 34.4178 12.7867 36.2578 14.92C38.1245 17.0533 38.7512 20.08 38.1378 24ZM23.6178 19.8H32.9778C32.9245 18.7867 32.4445 18.0133 31.5378 17.48C30.6312 16.92 29.5378 16.64 28.2578 16.64C27.1112 16.64 26.1245 16.92 25.2978 17.48C24.4712 18.04 23.9112 18.8133 23.6178 19.8Z" fill="#FF006D"/>
<path d="M4.21995 7.47999L9.97995 6.84V12.36H14.98V17.16H9.93995V24.6C9.93995 26.36 10.6866 27.24 12.18 27.24C13.14 27.24 13.94 27.08 14.58 26.76L15.9 31.56C14.5933 32.0667 13.2066 32.36 11.74 32.44C9.41995 32.5467 7.57995 32 6.21995 30.8C4.88662 29.5733 4.21995 27.5067 4.21995 24.6V17.16H0.699951V12.36H4.21995V7.47999Z" fill="#FF006D"/>
<path d="M123.392 39.7998L126.727 39.4291V42.6259H129.623V45.4057H126.704V49.7145C126.704 50.7337 127.137 51.2434 128.001 51.2434C128.557 51.2434 129.021 51.1507 129.391 50.9654L130.156 53.7452C129.399 54.0386 128.596 54.2085 127.747 54.2548C126.403 54.3166 125.337 54 124.55 53.3051C123.778 52.5947 123.392 51.3978 123.392 49.7145V45.4057H121.353V42.6259H123.392V39.7998Z" fill="#1FC4B1"/>
<path d="M119.521 43.7147L117.877 45.7995C117.089 45.2436 116.186 44.9656 115.166 44.9656C114.641 44.9656 114.232 45.0505 113.939 45.2204C113.661 45.3903 113.522 45.6219 113.522 45.9154C113.522 46.5486 114.085 46.8806 115.213 46.9115C115.722 46.9269 116.178 46.9655 116.579 47.0273C116.996 47.0736 117.437 47.1817 117.9 47.3516C118.379 47.506 118.772 47.7068 119.081 47.9539C119.39 48.201 119.653 48.5562 119.869 49.0195C120.085 49.4674 120.193 49.9924 120.193 50.5947C120.209 51.6449 119.799 52.5483 118.965 53.3051C118.131 54.0618 116.873 54.4401 115.189 54.4401C113.166 54.4401 111.375 53.7915 109.815 52.4943L111.251 50.1314C112.379 51.058 113.707 51.5368 115.236 51.5677C115.73 51.5831 116.139 51.4982 116.464 51.3129C116.803 51.1275 116.965 50.8882 116.95 50.5947C116.95 49.9616 116.301 49.6218 115.004 49.5755C114.433 49.5446 113.877 49.4674 113.336 49.3438C112.811 49.2048 112.302 49.0041 111.807 48.7415C111.329 48.4635 110.943 48.0852 110.649 47.6064C110.356 47.1122 110.209 46.5486 110.209 45.9154C110.209 44.6953 110.688 43.7765 111.645 43.1587C112.603 42.541 113.769 42.2321 115.143 42.2321C116.919 42.2321 118.379 42.7263 119.521 43.7147Z" fill="#1FC4B1"/>
<path d="M104.611 43.8768L104.726 42.5564H107.854V54H104.842L104.657 52.5638C104.302 53.1197 103.784 53.5367 103.105 53.8147C102.441 54.0927 101.784 54.2394 101.136 54.2548C99.3908 54.2703 97.97 53.7452 96.8735 52.6796C95.777 51.5986 95.2288 50.1314 95.2288 48.2782C95.2288 46.425 95.7924 44.9579 96.9198 43.8768C98.0626 42.7958 99.4989 42.2707 101.229 42.3016C101.97 42.3016 102.642 42.4406 103.244 42.7186C103.862 42.9966 104.317 43.3827 104.611 43.8768ZM101.576 45.2436C100.711 45.2436 99.9931 45.5216 99.4216 46.0775C98.8502 46.618 98.5645 47.3516 98.5645 48.2782C98.5645 49.2048 98.8502 49.9384 99.4216 50.4789C99.9931 51.0194 100.711 51.2897 101.576 51.2897C102.472 51.2897 103.198 50.9963 103.754 50.4094C104.325 49.8226 104.611 49.1508 104.611 48.394C104.611 47.5138 104.34 46.7725 103.8 46.1702C103.275 45.5525 102.533 45.2436 101.576 45.2436Z" fill="#1FC4B1"/>
<path d="M93.6502 49.367H85.2412C85.3339 49.9538 85.6505 50.4403 86.191 50.8264C86.7315 51.197 87.4496 51.3823 88.3454 51.3823C89.6272 51.3823 90.6156 51.0812 91.3105 50.4789L93.1869 52.5638C92.0441 53.6911 90.4071 54.2548 88.2759 54.2548C86.2373 54.2548 84.6544 53.7066 83.527 52.6101C82.4151 51.5136 81.8591 50.031 81.8591 48.1624C81.8591 46.4018 82.4074 44.981 83.5039 43.9C84.6003 42.8035 86.0752 42.2553 87.9284 42.2553C89.9515 42.2553 91.4958 42.873 92.5614 44.1085C93.6425 45.344 94.0054 47.0968 93.6502 49.367ZM85.2412 46.9346H90.6619C90.631 46.3478 90.353 45.8999 89.8279 45.5911C89.3029 45.2667 88.6697 45.1046 87.9284 45.1046C87.2643 45.1046 86.6929 45.2667 86.2142 45.5911C85.7354 45.9154 85.4111 46.3632 85.2412 46.9346Z" fill="#1FC4B1"/>
<path d="M74.7832 49.367H66.3743C66.467 49.9538 66.7835 50.4403 67.3241 50.8264C67.8646 51.197 68.5827 51.3823 69.4784 51.3823C70.7602 51.3823 71.7486 51.0812 72.4436 50.4789L74.3199 52.5638C73.1771 53.6911 71.5401 54.2548 69.4089 54.2548C67.3704 54.2548 65.7874 53.7066 64.6601 52.6101C63.5482 51.5136 62.9922 50.031 62.9922 48.1624C62.9922 46.4018 63.5404 44.981 64.6369 43.9C65.7334 42.8035 67.2082 42.2553 69.0615 42.2553C71.0845 42.2553 72.6289 42.873 73.6945 44.1085C74.7755 45.344 75.1384 47.0968 74.7832 49.367ZM66.3743 46.9346H71.7949C71.7641 46.3478 71.4861 45.8999 70.961 45.5911C70.4359 45.2667 69.8027 45.1046 69.0615 45.1046C68.3974 45.1046 67.826 45.2667 67.3472 45.5911C66.8685 45.9154 66.5442 46.3632 66.3743 46.9346Z" fill="#1FC4B1"/>
<path d="M57.4661 37.8076H60.7787V54H57.4661V37.8076Z" fill="#1FC4B1"/>
<path d="M48.1155 45.3363C47.2662 45.3363 46.5866 45.6142 46.077 46.1702C45.5674 46.7107 45.3126 47.4134 45.3126 48.2782C45.3126 49.1276 45.5597 49.8303 46.0538 50.3863C46.5635 50.9422 47.2507 51.2202 48.1155 51.2202C48.9649 51.2202 49.6908 50.9808 50.2931 50.5021C50.8954 50.0233 51.1965 49.2821 51.1965 48.2782C51.1965 47.3671 50.8876 46.6489 50.2699 46.1239C49.6522 45.5988 48.934 45.3363 48.1155 45.3363ZM51.2428 37.8076H54.6018V54H51.6135L51.405 52.5406C50.5402 53.6525 49.2738 54.2085 47.6059 54.2085C45.9226 54.2085 44.5558 53.668 43.5057 52.5869C42.471 51.4905 41.9536 50.0542 41.9536 48.2782C41.9536 46.4559 42.4787 45.0119 43.5288 43.9464C44.579 42.8653 45.9535 42.3248 47.6522 42.3248C49.1657 42.3248 50.3626 42.8653 51.2428 43.9464V37.8076Z" fill="#1FC4B1"/>
<path d="M33.2979 45.3363C32.4485 45.3363 31.769 45.6142 31.2594 46.1702C30.7497 46.7107 30.4949 47.4134 30.4949 48.2782C30.4949 49.1276 30.742 49.8303 31.2362 50.3863C31.7458 50.9422 32.4331 51.2202 33.2979 51.2202C34.1473 51.2202 34.8731 50.9808 35.4754 50.5021C36.0777 50.0233 36.3789 49.2821 36.3789 48.2782C36.3789 47.3671 36.07 46.6489 35.4523 46.1239C34.8345 45.5988 34.1164 45.3363 33.2979 45.3363ZM36.4252 37.8076H39.7842V54H36.7958L36.5874 52.5406C35.7225 53.6525 34.4562 54.2085 32.7883 54.2085C31.1049 54.2085 29.7382 53.668 28.688 52.5869C27.6533 51.4905 27.136 50.0542 27.136 48.2782C27.136 46.4559 27.6611 45.0119 28.7112 43.9464C29.7614 42.8653 31.1358 42.3248 32.8346 42.3248C34.3481 42.3248 35.5449 42.8653 36.4252 43.9464V37.8076Z" fill="#1FC4B1"/>
<path d="M24.9671 42.5333V54H21.6313V42.5333H24.9671ZM21.3997 39.5218C21.3997 40.1086 21.5927 40.5719 21.9788 40.9117C22.3803 41.2515 22.8205 41.4213 23.2992 41.4213C23.7779 41.4213 24.2104 41.2515 24.5964 40.9117C24.998 40.5719 25.1987 40.1086 25.1987 39.5218C25.1987 38.9349 24.998 38.4716 24.5964 38.1319C24.2104 37.7921 23.7779 37.6223 23.2992 37.6223C22.8205 37.6223 22.3803 37.7921 21.9788 38.1319C21.5927 38.4716 21.3997 38.9349 21.3997 39.5218Z" fill="#1FC4B1"/>
<path d="M11.769 54H8.47955V47.8612C8.47955 46.1934 7.82321 45.3594 6.51051 45.3594C5.87733 45.3594 5.37542 45.6065 5.00478 46.1007C4.63414 46.5949 4.44882 47.1895 4.44882 47.8844V54H1.11304V42.5564H4.03184L4.2635 43.8537C4.85035 42.819 5.85417 42.3016 7.27496 42.3016C8.86564 42.3016 9.97756 43.012 10.6107 44.4328C11.1204 43.6606 11.6686 43.1124 12.2555 42.7881C12.8423 42.4483 13.5604 42.2784 14.4098 42.2784C15.7688 42.2784 16.8653 42.6954 17.6993 43.5294C18.5487 44.3633 18.9734 45.7687 18.9734 47.7454V54H15.6144V47.8149C15.6144 46.2242 15.0353 45.4289 13.877 45.4289C13.2438 45.4289 12.7342 45.6683 12.3481 46.147C11.962 46.6103 11.769 47.1817 11.769 47.8612V54Z" fill="#1FC4B1"/>
</svg>
