<svg width="360" height="317" viewBox="0 0 360 317" fill="none" xmlns="http://www.w3.org/2000/svg">
<mask id="mask0_320_3915" style="mask-type:alpha" maskUnits="userSpaceOnUse" x="0" y="0" width="360" height="317">
<rect width="360" height="317" fill="#D9D9D9"/>
</mask>
<g mask="url(#mask0_320_3915)">
<path opacity="0.3" fill-rule="evenodd" clip-rule="evenodd" d="M-79.4221 317V278.578H-39.9113V317H-39.4221V278.578H0.088707V317H0.577904V278.578H40.0887V317H40.5779V278.578H80.0887V317H80.5779V278.578H120.089V317H120.578V278.578H160.089V317H160.578V278.578H198.648V317H199.137V278.578H238.648V317H239.137V278.578H278.648V317H279.137V278.578H318.648V317H319.137V278.578H358.648V317H359.137V278.578H398.648V317H399.137V278.578H438.648V317H439.137V278.578H477.559V278.089H439.137V238.578H477.559V238.089H439.137V198.578H477.559V198.089H439.137V158.578H477.559V158.089H439.137V118.578H477.559V118.089H439.137V78.578H477.559V78.0888H439.137V38.5779H477.559V38.0887H439.137V0H438.648V38.0887H399.137V0H398.648V38.0887H359.137V0H358.648V38.0887H319.137V0H318.648V38.0887H279.137V0H278.648V38.0887H239.137V0H238.648V38.0887H199.137V0H198.648V38.0887H160.578V0H160.089V38.0887H120.578V0H120.089V38.0887H80.5779V0H80.0887V38.0887H40.5779V0H40.0887V38.0887H0.577896V0H0.0886993V38.0887H-39.4221V0H-39.9113V38.0887H-79.4221V0H-79.9113V38.0887H-118V38.5779H-79.9113L-79.9113 78.0888H-118V78.578H-79.9113V118.089H-118V118.578H-79.9113L-79.9113 158.089H-118V158.578H-79.9113V198.089H-118V198.578H-79.9113V238.089H-118V238.578H-79.9113L-79.9113 278.089H-118V278.578H-79.9113V317H-79.4221ZM160.578 38.5779V78.0888H198.648V38.5779H160.578ZM198.648 78.578H160.578V118.089H198.648V78.578ZM198.648 118.578H160.578V158.089H198.648V118.578ZM198.648 158.578H160.578V198.089H198.648V158.578ZM198.648 198.578H160.578V238.089H198.648V198.578ZM198.648 238.578H160.578V278.089H198.648V238.578ZM-39.9113 278.089H-79.4221L-79.4221 238.578H-39.9113V278.089ZM-39.9113 238.089H-79.4221V198.578H-39.9113L-39.9113 238.089ZM-39.9113 198.089H-79.4221V158.578H-39.9113V198.089ZM-39.9113 158.089H-79.4221L-79.4221 118.578H-39.9113V158.089ZM-39.9113 118.089H-79.4221V78.578H-39.9113L-39.9113 118.089ZM-39.9113 78.0888H-79.4221L-79.4221 38.5779H-39.9113V78.0888ZM-39.4221 78.0888V38.5779H0.0886993V78.0888H-39.4221ZM0.577896 78.0888V38.5779H40.0887V78.0888H0.577896ZM40.5779 78.0888V38.5779H80.0887V78.0888H40.5779ZM80.5779 78.0888V38.5779H120.089V78.0888H80.5779ZM120.578 78.0888V38.5779H160.089V78.0888H120.578ZM120.578 78.578H160.089V118.089H120.578L120.578 78.578ZM120.578 118.578H160.089V158.089H120.578V118.578ZM120.578 158.578H160.089V198.089H120.578V158.578ZM120.578 198.578H160.089V238.089H120.578L120.578 198.578ZM120.578 238.578H160.089V278.089H120.578V238.578ZM120.089 238.578V278.089H80.5779V238.578H120.089ZM80.0887 238.578V278.089H40.5779V238.578H80.0887ZM40.0887 238.578V278.089H0.577904V238.578H40.0887ZM0.088707 238.578V278.089H-39.4221V238.578H0.088707ZM0.088707 238.089H-39.4221L-39.4221 198.578H0.088707V238.089ZM0.088707 198.089H-39.4221V158.578H0.088707V198.089ZM0.0886993 158.089H-39.4221V118.578H0.0886993V158.089ZM0.0886993 118.089H-39.4221L-39.4221 78.578H0.0886993V118.089ZM0.577896 118.089V78.578H40.0887V118.089H0.577896ZM40.5779 118.089V78.578H80.0887V118.089H40.5779ZM80.5779 118.089V78.578H120.089L120.089 118.089H80.5779ZM80.5779 118.578H120.089V158.089H80.5779V118.578ZM80.5779 158.578H120.089V198.089H80.5779V158.578ZM80.5779 198.578H120.089L120.089 238.089H80.5779V198.578ZM80.0887 198.578V238.089H40.5779V198.578H80.0887ZM40.0887 198.578V238.089H0.577904V198.578H40.0887ZM40.0887 198.089H0.577904V158.578H40.0887V198.089ZM40.0887 158.089H0.577896V118.578H40.0887V158.089ZM40.5779 158.089V118.578H80.0887V158.089H40.5779ZM40.5779 158.578H80.0887V198.089H40.5779V158.578ZM238.648 278.089H199.137V238.578H238.648V278.089ZM238.648 238.089H199.137V198.578H238.648L238.648 238.089ZM238.648 198.089H199.137V158.578H238.648V198.089ZM238.648 158.089H199.137V118.578H238.648V158.089ZM238.648 118.089H199.137V78.578H238.648V118.089ZM238.648 78.0888H199.137V38.5779H238.648V78.0888ZM239.137 78.0888V38.5779H278.648V78.0888H239.137ZM279.137 78.0888V38.5779H318.648V78.0888H279.137ZM319.137 78.0888V38.5779H358.648V78.0888H319.137ZM359.137 78.0888V38.5779H398.648V78.0888H359.137ZM399.137 78.0888V38.5779H438.648V78.0888H399.137ZM399.137 78.578H438.648V118.089H399.137L399.137 78.578ZM399.137 118.578H438.648V158.089H399.137V118.578ZM399.137 158.578H438.648V198.089H399.137V158.578ZM399.137 198.578H438.648V238.089H399.137L399.137 198.578ZM399.137 238.578H438.648V278.089H399.137V238.578ZM398.648 238.578V278.089H359.137V238.578H398.648ZM358.648 238.578V278.089H319.137V238.578H358.648ZM318.648 238.578V278.089H279.137V238.578H318.648ZM278.648 238.578V278.089H239.137V238.578H278.648ZM278.648 238.089H239.137L239.137 198.578H278.648V238.089ZM278.648 198.089H239.137V158.578H278.648V198.089ZM278.648 158.089H239.137V118.578H278.648V158.089ZM278.648 118.089H239.137V78.578H278.648V118.089ZM279.137 118.089V78.578H318.648V118.089H279.137ZM319.137 118.089V78.578H358.648V118.089H319.137ZM359.137 118.089V78.578H398.648L398.648 118.089H359.137ZM359.137 118.578H398.648V158.089H359.137V118.578ZM359.137 158.578H398.648V198.089H359.137V158.578ZM359.137 198.578H398.648L398.648 238.089H359.137V198.578ZM358.648 198.578V238.089H319.137V198.578H358.648ZM318.648 198.578V238.089H279.137V198.578H318.648ZM318.648 198.089H279.137V158.578H318.648V198.089ZM318.648 158.089H279.137V118.578H318.648V158.089ZM319.137 158.089V118.578H358.648V158.089H319.137ZM319.137 158.578H358.648V198.089H319.137V158.578Z" fill="url(#paint0_radial_320_3915)"/>
</g>
<defs>
<radialGradient id="paint0_radial_320_3915" cx="0" cy="0" r="1" gradientUnits="userSpaceOnUse" gradientTransform="translate(179.78 158.5) rotate(90) scale(158.5 483.672)">
<stop stop-color="#20C4B2"/>
<stop offset="1" stop-color="#20C4B2" stop-opacity="0"/>
</radialGradient>
</defs>
</svg>
